<svg width="28" height="28" viewBox="0 0 28 28" fill="none" xmlns="http://www.w3.org/2000/svg">
<path fill-rule="evenodd" clip-rule="evenodd" d="M3.71499 22.4682C3.24427 22.3289 2.81478 22.0812 2.46275 21.7458C2.11072 21.4105 1.84648 20.9974 1.69234 20.5415C0.811505 18.1848 0.550518 8.34432 2.24693 6.40169C2.81153 5.76974 3.60867 5.38066 4.46533 5.31891C9.01629 4.84122 23.077 4.90491 24.6918 5.47814C25.146 5.62199 25.561 5.86431 25.9056 6.18695C26.2503 6.50959 26.5156 6.90418 26.6819 7.34116C27.6442 9.7774 27.6769 18.6307 26.5514 20.9714C26.2528 21.5807 25.753 22.0742 25.1322 22.3726C23.4358 23.2006 5.966 23.1847 3.71499 22.4682V22.4682ZM10.9411 17.8505L19.0969 13.7104L10.9411 9.53855V17.8505Z" fill="white"/>
</svg>
