<svg width="1612" height="950" viewBox="0 0 1612 950" fill="none" xmlns="http://www.w3.org/2000/svg">
<path d="M94.9003 670.5C94.2003 669.7 93.1003 664.1 92.5003 658.1C91.9003 652 90.9003 646.7 90.4003 646.2C89.8003 645.7 87.2003 644.5 84.6003 643.5C80.6003 642.1 79.1003 640.7 76.2003 636.2C72.9003 631 72.8003 630.5 73.9003 626.8C74.5003 624.7 75.6003 622.7 76.3003 622.5C78.3003 621.7 85.6003 624.8 90.6003 628.5C93.7003 630.9 96.3003 632.1 98.5003 632.1C101.2 632.1 102.4 632.9 105.3 636.4C108.6 640.4 108.9 641.3 108.9 647.2C108.8 656.8 107.6 660.6 102.8 666C97.6003 671.8 96.4003 672.4 94.9003 670.5Z" fill="#C0C0C0"/>
<path d="M85.1004 588.2C84.0004 587.5 84.0004 586.6 85.0004 583.3C86.8004 577 86.0004 576.1 78.6004 576.1H72.2004L71.5004 571C70.9004 566.5 70.5004 565.8 67.4004 564.3C65.5004 563.4 63.9004 562.1 63.9004 561.3C63.9004 559.6 71.7004 548.1 72.9004 548.1C73.4004 548.1 74.1004 549 74.4004 550C75.4004 553.1 88.8004 556.2 91.5004 554C92.4004 553.2 96.9004 552.4 102 552.1C110.2 551.6 110.8 551.7 111.3 553.6C112.4 557.6 111.8 560.5 109.3 563.9C106.1 567.9 104.3 575.7 106 577.7C106.9 578.8 106.7 579.1 105.1 579.1C103.9 579.1 101.4 581.1 98.9004 584.1C95.1004 588.6 94.3004 589.1 90.6004 589.1C88.3004 589 85.8004 588.7 85.1004 588.2Z" fill="#C0C0C0"/>
<path d="M112.601 577.3C107.901 575.7 107.701 575.5 108.201 572.5C108.501 570.7 110.101 567.4 111.801 565.1C114.601 561.2 114.801 560.4 114.301 555.1C113.701 550.2 113.901 549.3 115.401 548.7C116.601 548.2 118.101 548.8 119.901 550.5C122.401 553 122.901 553.1 132.001 552.5C137.201 552.2 142.501 551.8 143.901 551.6C145.901 551.3 146.801 551.9 148.101 554.1C149.101 555.8 150.501 557.1 151.301 557.1C153.501 557.1 155.901 561.1 155.901 564.9C155.901 567.4 155.101 569 152.801 571.2C149.301 574.5 147.101 574.7 140.701 572.5L136.101 570.9L129.601 575C122.601 579.5 120.201 579.8 112.601 577.3Z" fill="#C0C0C0"/>
<path d="M107.1 634.2C104.6 631.1 103 630.1 99.7002 629.6C97.1002 629.1 93.4002 627.4 90.4002 625.1C87.7002 623.1 83.5002 620.9 81.2002 620.2C77.7002 619.2 76.9002 618.5 76.9002 616.7C76.9002 615.4 76.0002 611.8 74.9002 608.6C72.3002 601 72.3002 600.7 76.4002 598.8C78.3002 597.9 80.6002 595.7 81.4002 594C83.0002 590.9 83.3002 590.8 88.2002 591.3C93.0002 591.8 93.7002 592.3 98.7002 597.7C106.1 605.9 106.8 607 108 613.4C108.9 618.3 109.7 619.8 114.5 624.5C117.5 627.5 119.9 630.4 119.9 630.9C119.9 631.4 118.7 632.6 117.2 633.6C109.6 638.5 110.5 638.4 107.1 634.2Z" fill="#C0C0C0"/>
<path d="M140.7 647C138.2 645.7 136.7 644 135.9 641.6C135.3 639.7 134.2 637.7 133.6 637.3C132.9 636.9 131.6 635.4 130.7 633.9C129.7 632.4 127.6 631 125.9 630.6C124.2 630.2 121.6 628.3 119.9 626.2L116.9 622.6L120.4 622.3C123.4 622 124.6 621.1 128.1 616.3C130.3 613.1 132.5 610.2 133 609.7C133.4 609.2 134.9 610.1 136.2 611.6L138.6 614.4L143 612.6C145.4 611.7 147.9 610.7 148.5 610.4C149.5 610 159.9 622.5 159.9 624C159.9 624.3 157.4 626.4 154.4 628.6L148.9 632.6L149.1 640C149.4 647.2 149.3 647.5 146.8 648.1C145.2 648.6 143 648.2 140.7 647Z" fill="#C0C0C0"/>
<path d="M168.5 566.7C168.2 565.5 167.9 563.1 167.9 561.4C167.9 558.4 168.2 558.2 172.3 557.5C178 556.7 178.9 557.3 178.9 562.1C178.9 566.5 178.7 566.6 173.2 567.9C169.4 568.7 169 568.6 168.5 566.7Z" fill="#C0C0C0"/>
<path d="M112.3 617.9C111.8 617.2 110.9 613.9 110.2 610.7C109.2 605.8 108.1 604 102.9 598.4C99.4004 594.6 97.1004 591.5 97.6004 590.8C100.2 586.1 104.2 582.2 105.6 582.8C106.5 583.1 107.7 582.7 108.5 581.6C109.7 580 110.4 580 116.8 581.2L123.8 582.5L124.4 587.4C124.9 590.7 126.1 593.3 128 595.5C132.4 600.5 132.1 606.1 127.1 613.1C123.5 618.4 123.2 618.6 118.2 618.9C114.8 619.1 112.8 618.7 112.3 617.9Z" fill="#C0C0C0"/>
<path d="M93.6002 548.9C90.6002 547.2 91.4002 536.2 95.3002 524.2C98.5002 514.6 99.2002 513.3 104.7 507.8C110.6 501.9 110.7 501.9 114.1 503.1C116.9 504.1 118.7 506.1 123.3 513.7L129.1 523.1H136.5H143.9L147.9 528.2C150.1 531 151.9 533.6 151.9 534.1C151.9 535.2 146 546.2 144.5 547.8C143.7 548.6 139.4 549.4 133.2 549.7L123.1 550.4L120.6 547.5L118.1 544.6L113.3 546.8C108 549.1 96.2002 550.4 93.6002 548.9Z" fill="#C0C0C0"/>
<path d="M137.1 608C136.2 606.4 135.1 605.1 134.7 605.1C134.2 605.1 133.9 603.5 133.9 601.6C133.9 599.1 133 597.1 130.8 594.6C128.1 591.5 127.6 590.2 127.5 585.3L127.4 579.7L131.9 576.9L136.4 574.1L142.3 575.8C148.1 577.4 148.3 577.4 151.9 575.3L155.7 573.1L158.5 579.4C161.7 586.6 161.7 586.8 159.7 591.8C153.8 606.1 154.1 605.7 144.5 609L138.8 611L137.1 608Z" fill="#C0C0C0"/>
<path d="M109.901 688.1C107.401 686.5 105.001 685.2 104.401 685.1C103.601 685.1 99.7006 679.4 98.1006 676C98.0006 675.6 100.501 672.4 103.801 668.8C110.301 661.6 111.901 657.1 111.901 646.2V640.4L117.501 636.6C123.801 632.4 127.301 632.4 128.901 636.6C129.401 638 130.301 639.1 130.901 639.1C131.501 639.1 132.801 641.1 133.901 643.5C135.301 646.8 136.701 648.4 139.201 649.4C142.801 650.9 145.901 654.4 145.901 657C145.901 657.9 149.101 661.9 152.901 666.1C159.201 672.9 159.901 674 159.901 677.8C159.901 683 158.301 683.4 153.101 679.4C149.901 677 149.201 676.8 142.201 677.4C138.101 677.7 134.501 678.2 134.201 678.4C133.901 678.7 133.401 680.5 133.001 682.3C132.401 685.2 131.601 685.9 126.501 687.9C117.601 691.4 115.101 691.5 109.901 688.1Z" fill="#C0C0C0"/>
<path d="M19.8001 788.3C19.1001 786.8 18.3001 785.2 18.1001 784.8C17.9001 784.4 18.8001 784.1 20.1001 784.1C21.4001 784 23.1001 783.6 23.9001 783.1C25.1001 782.3 25.2001 781.8 24.2001 780.1C22.1001 776.8 22.7001 775.5 26.8001 773.6C30.6001 771.9 33.5001 767.9 32.4001 766C32.0001 765.5 30.3001 765.1 28.4001 765.1C24.6001 765.1 20.3001 761.4 19.3001 757.3C18.4001 753.8 19.5001 753.5 22.9001 756.4C25.2001 758.3 27.2001 759.1 30.0001 759.1C33.6001 759.1 34.1001 759.4 35.5001 762.6C37.5001 767.4 38.5001 778.3 37.1001 780.7C36.1001 782.4 35.9001 782.3 34.9001 779.3C34.2001 777.5 33.2001 776.1 32.5001 776.1C31.9001 776.1 29.4001 779.4 26.9001 783.6C24.5001 787.7 22.2001 791.1 21.8001 791.1C21.5001 791.1 20.6001 789.8 19.8001 788.3Z" fill="#C0C0C0"/>
<path d="M71.7001 868.7C70.8001 866.9 70.4001 864.9 70.7001 864.4C71.1001 863.8 76.3001 860.2 82.4001 856.3C93.2001 849.3 93.4001 849.2 95.2001 851.1C96.2001 852.2 97.9001 853.1 98.9001 853.1C102.4 853.1 101.3 856.9 97.4001 858.8C94.7001 860.1 93.6001 861.4 92.4001 865.1L90.8001 869.8L83.6001 870.5C79.7001 870.9 75.7001 871.4 74.8001 871.6C73.8001 871.9 72.7001 870.9 71.7001 868.7Z" fill="#C0C0C0"/>
<path d="M82.5001 913.8C82.2001 912.6 81.9001 908.4 81.9001 904.6C81.9001 898 81.7001 897.4 76.8001 890C72.3001 883.1 71.9001 881.9 72.5001 878.6C73.3001 874.1 75.5001 873.1 84.9001 873.1C92.4001 873.1 92.5001 873 94.9001 866.6C95.8001 864.4 97.4001 862.1 98.6001 861.5C103 859.4 104 857.8 103.7 854.2C103.5 851.1 103 850.5 100.7 850.3C98.0001 849.9 96.6001 848.4 92.1001 840.9L89.9001 837.3L98.5001 832.6L107.1 827.8L112.5 833.2C118.4 839 118.8 839.8 116.2 840.8C111.3 842.5 110.9 843.7 111.6 855.1C112.3 867.1 112.4 866.6 104.8 876.6L101 881.7L100.7 897.6L100.4 913.6L95.4001 914.7C92.7001 915.4 88.8001 915.9 86.8001 916C83.8001 916.1 83.0001 915.7 82.5001 913.8Z" fill="#C0C0C0"/>
<path d="M67.3004 860.6C66.9004 859.6 67.5004 858 68.9004 856.6C70.9004 854.5 71.1004 853.5 70.5004 848.6L69.8004 843.1H77.2004C86.2004 843.1 90.6004 843.9 91.3004 845.6C91.7004 846.7 87.6004 849.6 70.2004 860.9C68.2004 862.1 67.9004 862.1 67.3004 860.6Z" fill="#C0C0C0"/>
<path d="M45.5002 834.8C44.5002 831.4 42.9002 827.6 41.7002 826.4L39.7002 824.2L44.7002 821.7L49.7002 819.1L55.1002 822.1C58.0002 823.7 63.4002 826.6 67.1002 828.6L73.8002 832.1L71.8002 835.5C69.8002 838.8 69.8002 838.9 64.0002 838.3C60.0002 838 56.6002 838.3 53.3002 839.4C50.7002 840.3 48.3002 841.1 47.9002 841.1C47.5002 841.1 46.5002 838.3 45.5002 834.8Z" fill="#C0C0C0"/>
<path d="M115.6 832.8C110.7 828.3 109.5 826.4 107.8 821.1C106.7 817.6 104.3 811.4 102.4 807.3C100.5 803.2 98.6001 798 98.3001 795.7C97.6001 791.4 91.8001 780 88.7001 776.9C87.7001 775.8 85.5001 775.1 83.5001 775.1C80.7001 775.1 80.0001 774.7 79.7001 772.8C79.5001 771 78.9001 770.6 76.3001 770.9C74.5001 771 72.7001 770.5 72.1001 769.7C71.1001 768.6 71.8001 768.2 76.1001 767.6C79.0001 767.2 82.2001 766.2 83.1001 765.4C84.6001 764 85.0001 764.3 87.4001 768.1C88.9001 770.4 90.6001 773.7 91.3001 775.5C93.6001 781.7 94.4001 782.4 100.1 782.8C105.5 783.3 105.6 783.2 106.9 780.1C108.2 777 108.3 776.9 112.9 777.6L117.7 778.2L121.4 772.2C123.4 768.8 124.8 765.6 124.4 765.1C124.1 764.5 122 764.1 119.8 764.1C116.5 764.1 115.8 763.8 116.1 762.3C116.4 760.9 117.7 760.5 123.9 760.3C129.7 760 131.9 759.5 133.5 758C135.8 755.8 136.9 756.3 136.9 759.5C136.9 762.7 138.8 764.2 141.2 762.9C144.6 761.1 145.4 763.4 145.4 775.4V786.6L149.2 786.9C151.2 787.1 152.9 787.6 152.9 788.1C152.9 788.6 151.8 790.6 150.4 792.6C148.8 795.1 148.2 797.1 148.5 798.9C149.8 805.5 149.9 805.5 142.9 806.8C139.4 807.6 136 808.6 135.5 809.1C134.9 809.6 135.3 811.6 136.4 814.1L138.3 818.2L133.5 822.8C128.7 827.5 128.7 827.5 130.8 829.2C133.6 831.5 133.5 832.2 129.7 834.8C123.5 838.9 122 838.6 115.6 832.8Z" fill="#C0C0C0"/>
<path d="M35.6 821C33.3 819.2 21.4 800.3 22.1 799.6C22.3 799.4 24.7 798.2 27.4 797.1L32.3 795L35.4 798.7L38.6 802.4L41.9 800.7C46.4 798.5 47.2 798.6 49.1 801.9C50.7 804.5 50.7 804.7 49.1 805.7C47.5 806.7 47.5 807.1 49.1 811.3L50.7 815.9L47.7 817.1C46.1 817.8 43.2 819.4 41.4 820.7C38.1 822.9 38 822.9 35.6 821Z" fill="#C0C0C0"/>
<path d="M36.4002 795.6C34.9002 793.7 33.2002 792.1 32.5002 792.1C31.9002 792.1 28.8002 793.4 25.7002 794.9C22.5002 796.4 19.6002 797.4 19.2002 797C18.8002 796.6 16.8002 795.8 14.8002 795.2C10.5002 793.8 9.90017 791.8 9.90017 777.9C9.90017 770.8 9.40017 767.7 6.80017 760.4C2.80017 749 1.10017 742.9 0.300173 736.9C-0.299827 732.6 -0.0998273 732.1 1.60017 732.1C2.60017 732.1 4.30017 733.4 5.20017 735.1C7.50017 738.9 9.00017 738.8 14.5002 734.9C18.6002 731.9 19.2002 731.8 25.3002 732.4C32.9002 733.1 33.7002 732.5 34.1002 725.5C34.4002 720.1 34.1002 720.3 42.6002 721.6C45.5002 722.1 45.8002 722.4 45.3002 724.9C44.5002 728.7 47.1002 731.3 50.3002 730.1C52.2002 729.4 53.1002 729.7 54.6002 731.4C59.2002 736.7 59.2002 736.7 57.4002 742.1L55.7002 747.1L59.4002 752.6C62.3002 756.9 63.0002 758.9 62.7002 761.8C62.4002 765.5 62.3002 765.6 58.2002 765.6C54.4002 765.6 53.7002 766 51.4002 769.3C48.5002 773.6 48.4002 774.7 50.5002 780.1C52.1002 783.9 52.0002 784.1 50.0002 785.8C48.9002 786.8 47.3002 789.4 46.6002 791.6C45.7002 794.1 44.1002 796.2 42.1002 797.4L39.1002 799.2L36.4002 795.6ZM27.9002 787.3L32.2002 780.6L33.6002 783.8C35.4002 788.2 37.3002 787.9 39.3002 782.8C40.6002 779.2 40.7002 777.2 40.0002 771C38.4002 758.7 36.5002 756.1 29.1002 756.1C27.7002 756.1 25.3002 754.9 23.7002 753.4C21.3002 751.1 20.6002 750.9 18.4002 751.9C15.0002 753.5 15.2002 757.5 19.0002 762.6C21.1002 765.3 23.0002 766.7 25.1002 767.1C29.9002 767.8 29.5002 769.6 23.8002 771.9C18.6002 774.1 18.4002 774.5 20.3002 779.2C20.9002 780.4 20.3002 780.9 18.0002 781.4C16.1002 781.8 14.9002 782.6 14.9002 783.6C14.9002 786.4 20.0002 794.1 21.9002 794.1C23.0002 794.1 25.3002 791.6 27.9002 787.3Z" fill="#C0C0C0"/>
<path d="M57.9002 854.2C51.3002 852.5 50.3002 851.5 48.5002 845.5C48.0002 843.6 48.5002 843.2 53.1002 842.1C56.0002 841.5 60.4002 841.1 62.9002 841.2L67.4002 841.6L67.7002 847.4C68.0002 852.7 66.9002 856.3 65.0002 856C64.7002 855.9 61.5002 855.1 57.9002 854.2Z" fill="#C0C0C0"/>
<path d="M75.2004 840.2C72.4004 839.9 72.4004 839.4 74.9004 835.6C77.6004 831.4 77.5004 830.7 73.2004 828.7C71.1004 827.7 65.8004 824.9 61.3004 822.4C53.8004 818.1 53.2004 817.5 52.3004 813.4C51.4004 809.6 51.5004 809.1 53.0004 809.1C56.2004 809.1 56.0004 807.2 52.5004 801.9C50.5004 799 48.9004 795.8 48.9004 794.8C48.9004 792.3 50.7004 788.9 53.1004 787C55.1004 785.4 55.1004 785.3 53.4004 779.8C51.7004 774.5 51.7004 774.1 53.3004 771.6C54.5004 769.8 55.7004 769.1 57.7004 769.2C59.2004 769.3 61.5004 768.9 62.8004 768.2C64.9004 767 65.5004 767.2 69.3004 771C72.3004 773.9 74.1004 774.9 75.3004 774.5C76.5004 774 77.2004 774.4 77.6004 775.9C78.0004 777.7 78.9004 778.1 82.3004 778.1C86.2004 778.1 86.6004 778.3 90.3004 784.2C92.9004 788.1 94.7004 792.5 95.5004 796.4C96.1004 799.8 98.3004 805.8 100.2 809.7C104.8 819 106.3 824.2 104.6 825.7C104 826.3 100.3 828.5 96.4004 830.6C87.4004 835.4 86.7004 836 87.3004 838.5C87.8004 840.4 87.4004 840.6 82.6004 840.6C79.7004 840.6 76.4004 840.4 75.2004 840.2Z" fill="#C0C0C0"/>
<path d="M99.4004 780.3C95.7004 779.8 93.9004 778.4 93.9004 775.9C93.9004 773.3 87.1004 761.1 85.3004 760.4C84.5004 760.1 82.9004 761 81.8004 762.5C79.8004 765 79.2004 765.1 73.1004 764.9L66.4004 764.6L65.9004 760.6C65.6004 758.4 63.8004 754.4 62.0004 751.7L58.7004 746.8L60.4004 741.6L62.2004 736.3L58.5004 731.7C54.6004 727 54.1004 726.7 50.1004 727C48.3004 727.2 47.8004 726.8 48.1004 725.4C48.4004 723.9 49.4004 723.6 53.1004 723.6C55.7004 723.6 58.4004 723 59.1004 722.2C60.5004 720.8 59.2004 719.4 52.4004 714.4C49.5004 712.3 49.5004 712.2 51.3004 710.2C52.7004 708.6 54.4004 708.1 57.6004 708.1C61.5004 708.1 62.6004 708.7 68.1004 713.7L74.2004 719.4L77.3004 715.9C79.0004 714 82.0004 710.2 83.9004 707.6C86.5004 704 88.4004 702.4 91.4004 701.6C97.8004 699.7 99.7004 698.3 100.9 694.3C102.8 688.6 103.4 688.4 109.1 692C113.5 694.7 114.9 695.1 117.9 694.6C125.4 693.1 125.2 693 126.8 699.9C128.5 706.9 128.6 706.7 121.4 711.7C119.4 713.1 119.4 713.1 121.7 717.4C124 721.7 124 721.8 122.3 725.4C120.6 728.9 120.3 729.1 115.7 729.1C110.7 729.1 104.9 731.3 104.9 733.1C104.9 733.7 105.6 735.6 106.5 737.2C107.8 739.8 107.9 741.1 107 744.7C105.5 750.4 107.2 756.4 110.9 759.1C113 760.6 113.5 761.6 113.1 764C112.7 767 112.8 767.1 116.9 767.1H121L118.7 771.2C116.4 775.3 116.4 775.3 111.7 774.7C107.2 774.2 106.8 774.3 105.4 777.1C103.6 780.5 103.2 780.7 99.4004 780.3Z" fill="#C0C0C0"/>
<path d="M512.2 477.9C493.9 469.8 487.4 466.4 474.5 457.8C462.7 450.1 458.3 447.7 456.6 448.1C454.6 448.6 426.3 448.7 410.6 448.3C406.9 448.2 403.5 447.7 403 447.2C402.5 446.7 399.3 440.9 395.9 434.4C390.8 424.9 389.9 422.4 391 421.6C391.8 421.1 393.9 419.8 395.8 418.6L399.1 416.5L398.5 409.6L397.8 402.8L402.1 400.9C408 398.4 416.9 388.6 416.9 384.7C416.9 383.2 417.3 381.6 417.8 381.3C419.4 380.3 424.1 385 426 389.5C428.4 395.2 428.4 399 426 401.2C424.1 402.9 423.8 402.9 418.9 401.2C414 399.4 413.9 399.4 409.4 401.6C406.9 402.8 404.6 404.5 404.2 405.4C403.6 407.1 405.6 422.7 406.7 424.5C407.5 425.7 417.6 429.8 419.9 429.8C420.8 429.8 423.9 427.3 426.9 424.3L432.3 418.8H460.6C476.3 418.8 489 419.2 489.3 419.7C489.7 420.2 487.4 422 484.4 423.7C481.3 425.4 478.6 427.5 478.2 428.4C477.6 430 484.1 437.4 487.4 438.7C488.7 439.2 491.4 438.8 494.8 437.6C501.6 435.3 503.6 435.3 509.9 437.8C514 439.4 516.2 439.6 522.5 439.1L530.1 438.5L529.4 443.1C528.7 447.5 528.8 447.8 531.5 448.9C536.3 450.9 541.2 450.3 545.9 447.2L550.2 444.3L549.6 437.6C549.1 432.3 549.4 430.5 550.6 429.3C552.2 427.6 552 427.6 567.6 436.5C570 437.9 573.1 440.9 575 443.9L578.2 448.9L576.1 451.8C573.4 455.4 573.4 455 576.6 462.5C578 466 578.9 469.1 578.5 469.5C578.1 469.9 576.4 469.6 574.6 468.9C571.5 467.7 571.3 467.8 567.7 471.8C565.1 474.7 562.7 476.2 559.8 476.9C557.5 477.4 553.8 479.4 551.5 481.2C549 483.3 545.1 485.2 541.3 486.2C537.9 487.1 535 487.7 534.8 487.7C534.6 487.7 524.4 483.2 512.2 477.9Z" fill="#C0C0C0"/>
<path d="M526.8 387.8C522.5 384.5 518.9 380.8 518.6 379.6C518.3 378.3 517.1 372.3 516 366.2C514.1 356.5 514.1 354.6 515.2 351.2C516.3 348 517.3 347 520.4 346C522.7 345.2 527.8 341.3 533.7 335.7C542.1 327.8 543.6 326.8 546 327.3C548.4 327.8 549.2 327.2 553.4 321.8C555.9 318.5 560.1 314.4 562.7 312.6C565.3 310.8 571.7 306.2 576.9 302.3C582.1 298.3 587.6 294.4 589 293.4C592.1 291.4 612.3 288.2 631.3 286.7C639.2 286.1 648.4 284.7 652.5 283.6C656.5 282.4 660.4 281.8 661.3 282.1C664.1 283.2 663.1 288.4 659.4 292.1C655.6 295.9 655.6 295.9 633.3 298.3C617.1 300 612.5 301.7 599.1 310.6C596 312.6 590.7 315.4 587.5 316.7C584.3 318.1 578.6 321.6 575 324.5C571.4 327.5 564.8 332.6 560.4 335.9C552 342.1 541.5 353.3 537.2 360.6C534.7 364.8 534.7 365.3 535.2 377.1C535.5 383.8 535.9 390.1 536.1 391.2C536.7 394.6 534.5 393.8 526.8 387.8Z" fill="#C0C0C0"/>
<path d="M660.4 180.3C658.5 175.4 661.9 171.7 666.4 173.7C669.3 175.1 669.4 175.9 666.7 179.2C664.4 182.2 661.3 182.7 660.4 180.3Z" fill="#C0C0C0"/>
<path d="M677 180.3C674.3 179.1 673.9 178.5 674.8 177C676.2 174.4 685.7 172 686.9 174C688.7 176.8 687.8 179 684.3 180.4C682.4 181.2 680.7 181.8 680.6 181.8C680.4 181.7 678.8 181.1 677 180.3Z" fill="#C0C0C0"/>
<path d="M647.8 178.4C647.8 174.1 654.7 173.8 654.8 178.1C654.8 178.9 650.5 180.9 648.7 180.9C648.2 180.9 647.8 179.8 647.8 178.4Z" fill="#C0C0C0"/>
<path d="M646.9 166.2C644.9 159.1 645.7 158.6 654.2 161.5C658.6 163 658.9 163.3 658.6 166.2C658.3 169.3 658.1 169.4 653.1 169.7L647.9 170L646.9 166.2Z" fill="#C0C0C0"/>
<path d="M608.5 162.9C606.8 161 606.8 160.9 610.1 159.6C622.1 154.6 628.1 152.7 629 153.6C629.8 154.5 629.2 161.9 628.3 161.9C628.1 161.9 624.5 162.5 620.2 163.4C610.4 165.3 610.6 165.3 608.5 162.9Z" fill="#C0C0C0"/>
<path d="M654.3 156.5L651.3 155.2L656.8 153.5C661.5 152.1 662.4 152 663.7 153.3C664.9 154.5 664.9 155 663.8 156.3C662.3 158.2 658.4 158.2 654.3 156.5Z" fill="#C0C0C0"/>
<path d="M614.4 150.9C614.1 150.3 612.2 149.9 610.3 149.9C606.1 149.9 605.9 148 609.8 145.1L612.7 143L618.3 145.2C621.4 146.4 623.8 147.7 623.8 148.2C623.8 149 617.8 151.9 616 151.9C615.5 151.9 614.7 151.4 614.4 150.9Z" fill="#C0C0C0"/>
<path d="M19.2001 425.1C17.6001 423 13.2001 416.8 9.40009 411.4C2.00009 400.7 2.00009 399.8 9.10009 399.8C12.2001 399.8 13.1001 400.3 14.8001 403.1C15.9001 404.9 17.8001 407.2 18.9001 408.3C20.9001 410.1 21.0001 410.1 23.9001 408C25.7001 406.6 27.0001 406.2 27.4001 406.8C28.5001 408.5 32.9001 423.1 32.9001 425C32.9001 427.1 32.4001 427.4 26.8001 428.3C22.4001 428.9 22.1001 428.8 19.2001 425.1Z" fill="#C0C0C0"/>
<path d="M203.1 480.6C202.4 479.9 201.9 479 201.9 478.6C201.9 478.1 200 473.7 197.7 468.8L193.6 459.8H189.7C186.2 459.8 185.8 459.5 186.4 457.8C186.8 456.5 186.2 454.4 184.9 452.3C182.7 448.7 181.1 448.2 175.9 449.7C172 450.8 165.1 449.1 162.3 446.3C159.9 443.9 159.7 443.8 156.9 445.3C155.3 446.1 153.8 446.8 153.5 446.8C153.3 446.8 152.8 444.2 152.5 441C152.1 437.9 150.9 432.2 149.7 428.5C147.1 420.7 147.3 420.4 154.5 419.3C157.7 418.8 160 419.2 163.8 420.8C169.1 423.1 170 424.5 171.5 433C172.1 436.5 172.3 436.7 177.3 437.3C180.1 437.6 184 437.8 185.9 437.6C189 437.3 189.6 436.7 192 431.8C193.5 428.7 194.5 425.9 194.2 425.5C194 425.1 191 423.2 187.4 421.3C182.7 418.6 180.8 416.9 180 414.6C178.4 409.9 178.6 409 182.3 405.2C185.3 402 186.2 401.7 190.1 402C194.3 402.3 194.5 402.5 197.3 408C198.9 411.2 202.9 419.9 206.3 427.5L212.4 441.3L218.2 442.1C223.6 442.9 224.2 442.8 226.6 440.6L229.1 438.3L231.5 441.3C232.8 442.9 235.3 446.1 236.9 448.4L239.9 452.6L236.3 453.8C234.3 454.5 229.4 457.9 225.4 461.4C219.6 466.5 218 468.5 217.7 471C217.5 473.6 216.4 474.7 211.4 477.9C204.5 482.2 204.7 482.1 203.1 480.6Z" fill="#C0C0C0"/>
<path d="M448.4 586C438.2 581.9 433.5 581.5 421.7 583.7C414.5 585 413.5 585 407.2 583.2C400.7 581.4 400.3 581.1 397.8 576.3L395.3 571.3L387.8 570.6C377.4 569.7 376.9 569.9 376.9 575.9C376.9 583 374.8 583.6 361.7 580.3C351 577.7 350.1 577.8 346 582.2C344.6 583.6 343 584.8 342.4 584.8C341.2 584.8 337.9 574.9 337.9 571.3C337.9 570.3 339.4 567.8 341.3 565.8C343.9 562.9 345.1 560.1 346.5 554.3L348.3 546.6L351.9 547.2C362.9 549.3 363.5 549.2 366.2 545.6C367.9 543.4 368.6 541.4 368.3 539.8C367.9 537.7 369.2 535.8 376.4 528.8C381.1 524.1 384.9 519.9 384.9 519.5C384.9 519 383.7 517.1 382.2 515.2C379.7 512.2 378.9 511.8 374.7 511.8C370.5 511.8 369.8 512.1 366.7 515.9C363.6 519.6 363 519.9 361.1 518.9C358.5 517.5 358.5 516.9 360.8 510.3C362.4 505.6 362.9 505.2 367 504.2L371.4 503.1L371.1 497.1C370.9 493.9 371.3 489.9 371.9 488.3C372.8 485.9 372.5 484.5 369.9 479C367.5 473.9 367.1 472.2 368.1 471.6C370.4 470.2 372.7 470.7 378.1 473.9C386.4 478.8 389 480.8 390 483.4C390.7 485.4 391.5 485.8 395.3 485.8C397.7 485.8 402.6 486.7 406.1 487.8C409.6 488.8 412.5 489.7 412.6 489.8C412.7 489.8 413.9 488.2 415.3 486.2L417.7 482.6L415.3 475.6L413 468.6L415.6 463.4C417 460.6 419.2 456.7 420.5 454.7L422.8 451L441.2 451.2L459.6 451.3L475 461.4C485.9 468.5 494.4 473.2 503.9 477.2C511.3 480.4 519.2 483.8 521.4 484.7C535.9 491.2 534.2 490.9 541.9 488.8C546.6 487.6 550.1 485.9 552.9 483.5C555.5 481.3 558.4 479.8 560.9 479.5C563.7 479.1 565.6 478 568 475.4C572.6 470.1 577.5 470.9 573.4 476.3C571.3 479.2 571.6 481.6 574.5 484.1L577 486.3L574.2 490.3C572.7 492.6 569.4 496.3 566.9 498.5C562.7 502.3 561.5 502.8 552.9 504.3C543.5 505.9 538.6 508.1 534.3 512.9C533.4 513.9 529.5 515.7 525.8 516.8C522 517.9 516.2 520.7 512.9 523C507.4 526.8 506.7 527.1 505.8 525.5C504.2 522.7 502.7 523.4 496 530.1C490.6 535.6 489.7 537.1 489.3 540.8C489.1 543.2 488.8 545.2 488.7 545.2C488.5 545.3 485.7 547.5 482.3 550.1C476.4 554.6 476 555.2 471.5 566.5C464.3 584.2 461.7 589.2 459.4 589.4C458.3 589.5 453.4 588 448.4 586Z" fill="#C0C0C0"/>
<path d="M353.9 544.8C352.5 544.3 350.1 543.9 348.6 543.9C346.8 543.8 344.9 542.8 343.7 541.2C341.9 539 341.2 538.7 337.8 539.3L333.9 539.9V536C333.9 532.9 333.5 531.9 332 531.5C330.9 531.2 329.1 529.1 328 526.9C325.9 522.8 323.9 521.9 321 523.7C320.3 524.1 318.5 524.2 317 523.8C314.9 523.3 314.3 522.4 313.9 519.2C313.5 516 313 515.3 311.4 515.5C310.3 515.7 307.4 516.1 304.9 516.4C300.6 517 300.2 516.8 297.7 513.5C296 511.3 292.3 508.8 287.5 506.5C281.7 503.7 279.8 502.3 279.3 500.3C278.9 498.8 277.8 497.5 276.3 497.2C273.5 496.5 260.9 483.4 260.9 481.2C260.9 480.4 262 477 263.4 473.8C264.8 470.5 265.9 467.2 265.9 466.3C265.9 465.5 267.7 463.9 269.8 462.8C273.3 461.1 273.9 460.2 274.8 455.7C275.4 452.8 277 449.2 278.4 447.6C280.7 444.8 280.8 444.6 279.4 440C276.9 431.8 277.4 429.2 282.8 422C284.9 419.3 285.9 418.8 289.5 418.8C292.8 418.8 293.8 419.2 294.2 420.7C294.6 422.5 300.3 426.8 302.1 426.8C303.2 426.8 309.9 420.7 311 418.7C311.6 417.5 311.5 415.4 310.7 412.5C309.3 407.2 310.5 400 313.1 398.4C315.8 396.7 316.8 398.5 317.8 407.6L318.7 415.9L325.1 422.6C333.5 431.4 335.1 431.6 337.8 424.1C342.8 410.2 344.6 408.9 359.4 408.9C372.3 409 372.6 409.1 376 417.3C380.1 426.8 381.1 427.7 384.9 425.5L387.8 423.7L394.9 437.2L402 450.7L408.2 450.1C412.7 449.7 414.9 450 416.3 451C418 452.3 417.9 452.7 414.2 460.3L410.2 468.3L412.4 475.5C414.3 481.5 414.4 483 413.4 484.5C412.2 486 411.6 486.1 407.5 485C405 484.3 401.1 483.8 398.8 483.8C395.4 483.8 394.1 483.1 389.9 479C387.2 476.4 382.1 472.7 378.5 470.8C372.4 467.6 371.8 467.5 368 468.6C365.7 469.3 363.9 470.5 363.9 471.2C363.9 471.9 365.3 475.5 366.9 479C369.5 484.6 369.8 485.9 368.9 488.4C368.2 490 368 493.3 368.3 495.9C369 501 369.2 500.8 362.8 502.1C360.7 502.6 359.9 503.8 357.9 510.3L355.5 517.9L358.5 520.3C362.5 523.6 364.1 523.4 367.8 518.8C370.5 515.4 371.6 514.8 374.8 514.8C377.8 514.8 379 515.3 380.2 517.1C381.7 519.4 381.5 519.7 373.3 527.9C366 535 364.9 536.7 365.3 538.9C366.4 544.5 361.3 547.1 353.9 544.8Z" fill="#F2A741"/>
<path d="M262 458.4C259.1 455.3 258 454.9 251.5 454.3L244.2 453.6L237.3 444.2C233.5 439.1 229.8 434.8 229.2 434.8C228.5 434.8 226.9 435.9 225.7 437.3C223.6 439.7 220.6 440.3 216.3 439.2C214.6 438.7 212.3 434.6 206.5 421.4C202.3 412 198.9 403.7 198.9 403C198.9 402.1 200.9 401.8 205.7 401.8C213.9 401.8 239.9 397.2 241.5 395.5C242.2 394.8 243.4 389.6 244.3 383.8C245.2 378 246.3 373 246.7 372.5C247.2 372.1 249.5 371.2 252 370.5C256.2 369.3 256.7 368.7 261.9 359.4C266.9 350.5 267.9 349.3 273.4 346.1C281.1 341.6 283.2 339.6 288.1 332.5C290.2 329.4 292.4 326.8 292.9 326.8C293.5 326.8 296.2 328.4 299 330.4C303.7 333.8 304 334.3 303.4 337.2C301.9 343.5 303.3 346.8 307.5 346.8C310.2 346.8 310.3 347.3 312 359.2L313.2 368.2L310.4 370.2C304.5 374.4 300.1 378.9 294.4 386.4L288.5 394L290.4 403.1C291.4 408.1 292.4 413 292.7 414C293.1 415.5 292.5 415.8 288.6 415.8C284.4 415.8 283.9 416.1 280 421.1C276.1 426.1 275.9 426.8 276 432.9C276.1 436.4 276.4 440.4 276.8 441.8C277.4 443.6 277 445 275.4 446.9C274.1 448.4 272.8 451.7 272.5 454.2C271.9 457.9 271.2 459.1 268.9 460.3C267.3 461.1 265.8 461.8 265.7 461.8C265.5 461.8 263.8 460.2 262 458.4Z" fill="#F2A741"/>
<path d="M351.2 391.4C344.9 388.8 342.9 387 337.3 379.2C331.6 371.2 327.3 359.3 325.2 345.5C323.6 335.5 323.2 334.2 321.3 334C319.8 333.8 318 335.1 315 338.7C312 342.2 310 343.8 308.3 343.8C305.1 343.8 304.5 342 306.4 337.5C307.8 334 307.8 333.9 305.1 331.6C303.6 330.3 300.6 328.1 298.6 326.8C294.6 324.1 294.3 323.2 296.1 319.3C297.3 316.6 297.6 316.4 306.4 314.7C314.4 313.2 316.5 311.7 317.3 307.1C319.8 292.7 321 289 323.7 287.8C333.5 283.3 336.8 282.7 348.8 283.8C366.6 285.4 366.9 285.5 366.9 288.3C366.9 290.4 366.4 290.8 363.9 290.8C362.2 290.8 360.6 291.4 360.3 292.2C359.3 294.7 362.8 304.8 368 314.8C372.7 323.7 373.1 325 374.5 336.8C375.3 343.6 376.9 351.9 378 355.2C380.3 362.3 380.3 367.1 378.1 380.3L376.4 390.3L370.4 391.9C362.4 394.2 357.4 394 351.2 391.4Z" fill="#F2A741"/>
<path d="M113.1 496C108.7 487.4 101 466.8 101.6 465.1C102.5 462.5 114.9 441.6 116.7 439.5C117.5 438.6 119.6 437.8 121.3 437.8C125.5 437.8 128 435.9 131.8 429.9C134.9 425.1 138.6 422.8 142.9 422.8C145.3 422.8 148.7 431.9 149.5 440.5L150.2 447.8H147.7C144 447.8 142.6 450.1 143.2 455C143.5 457.4 144 460.2 144.4 461.3C144.8 462.7 143.7 464.6 140.4 468.3C128.2 481.5 127.1 483.1 126 489.2C125.4 492.5 124.9 495.3 124.9 495.5C124.9 496.3 118.3 499.8 116.8 499.8C115.9 499.8 114.2 498.1 113.1 496Z" fill="#C0C0C0"/>
<path d="M174.6 434C173.9 432.9 172.8 425.8 173.2 425.8C173.5 425.8 175.3 426.5 177.4 427.3C182.1 429.3 184.3 428.6 183.7 425.3C183.4 423.9 183.6 422.8 184.1 422.8C184.8 422.8 188.5 424.8 190.8 426.5C191 426.6 190.4 428.6 189.4 430.8L187.6 434.8H181.3C177.9 434.8 174.8 434.4 174.6 434Z" fill="#C0C0C0"/>
<path d="M1309.5 61.1999C1306.2 57.5999 1305.8 56.6 1305.8 51.7C1305.8 47 1306.1 46.1999 1308.1 45.5999C1309.3 45.1999 1311.5 44.1 1313 43C1314.4 42 1316.1 41.2 1316.7 41.2C1319.3 41.2 1316.9 64 1314.2 64.9C1313.6 65.1 1311.5 63.3999 1309.5 61.1999Z" fill="#C0C0C0"/>
<path d="M1308.5 783.9C1302.9 778.8 1292.9 769.7 1286.3 763.6C1263.7 742.8 1264.5 743.3 1257.8 742.6C1252.9 742 1251.3 742.2 1249.1 743.6C1246.9 745.1 1245.1 745.2 1237.2 744.6C1227.1 743.9 1224.8 744.6 1215 751.3C1209.8 754.9 1208 754.6 1201.8 749.1L1197.3 745.2L1199.1 742.2C1201.5 738.2 1201.3 736.8 1198 734.3C1195.9 732.8 1194.7 730.5 1193.4 725.9C1190.2 714.3 1189.7 713.1 1187.9 713.1C1186.9 713.1 1185.1 714.2 1183.8 715.6C1182.5 716.9 1181.2 718.1 1180.8 718.1C1180.5 718.1 1178.8 716 1177 713.6C1175.3 711.1 1173.3 709.1 1172.6 709.1C1172 709.1 1170.2 710.3 1168.6 711.7C1165.1 715.1 1162.7 713.7 1163.5 708.7C1164 705.7 1163.7 705.3 1158.9 702.7C1156.1 701.2 1153.8 699.4 1153.8 698.8C1153.8 698.1 1156.1 696 1158.9 694.1C1163.7 690.9 1164.2 690.8 1168.1 691.7C1174.6 693.4 1187.4 692.5 1194.9 689.9L1201.6 687.7L1206.5 690.9C1212.5 694.7 1213.9 694.8 1221.4 691.5C1226 689.4 1228.3 689 1231.9 689.4C1236.3 689.9 1237.1 689.6 1244.9 684.4C1250 681 1256.1 677.9 1260.2 676.7C1264.6 675.3 1267.5 673.8 1268.2 672.6C1272.1 665.4 1274.2 663.1 1277.5 662.5C1279.6 662.1 1284.3 659.1 1289.4 655.1C1300.5 646.3 1302.2 645.5 1305.6 646.7C1309.5 648 1309.7 652.9 1306 662.2C1303.3 669.1 1299.8 685.4 1299.8 691.4C1299.8 694.6 1300.4 694.6 1308.6 692.1C1312.1 691 1315.5 690.1 1316.2 690.1C1316.9 690.1 1318.5 691.9 1319.7 694.1C1320.9 696.3 1322.4 698.1 1323 698.1C1323.6 698.1 1328.3 694.9 1333.5 691.1C1342.1 684.5 1342.8 683.8 1342.8 680.6C1342.8 677.5 1343.1 677.1 1345.2 677.1C1346.9 677.1 1349.1 675.5 1352.2 671.9L1356.7 666.8L1359.8 673.7C1361.6 677.5 1363.6 682 1364.4 683.7L1365.7 686.9L1357.8 690.1C1353.4 691.8 1349.8 693.8 1349.8 694.4C1349.8 695 1351.2 696.9 1352.9 698.7L1356 701.9L1353.5 704.1C1351.9 705.5 1350.7 707.9 1350.3 710.4C1349.9 712.7 1348.2 717.3 1346.6 720.7C1343.8 726.6 1343.6 727.5 1344 737.7C1344.3 747.6 1344.6 749 1347.1 752.8C1349.7 756.9 1350 757.1 1355.1 757.1C1360.1 757.1 1360.6 757.3 1365.6 762.4C1368.5 765.3 1370.8 768.3 1370.8 769C1370.8 769.8 1369.9 773.9 1368.7 778.2C1367.1 784.1 1366.1 786.2 1364.6 786.6C1363.5 787 1358.4 786.7 1353.4 786C1344.8 784.9 1344 784.9 1339.3 786.9C1334.7 788.9 1321.3 793.1 1319.5 793.1C1319.1 793.1 1314.2 788.9 1308.5 783.9Z" fill="#F2A741"/>
<path d="M1385.7 803.3C1384.8 802.9 1381.7 799.7 1378.7 796.2C1369.1 784.9 1369.7 786.2 1371.2 779.7C1372 776.6 1372.7 773.8 1372.9 773.7C1374.5 772.4 1393.8 762.1 1394.7 762.1C1395.3 762.1 1397.4 762.8 1399.3 763.8C1402.8 765.4 1403.3 765.4 1411.9 763.2C1416.8 761.9 1421.1 761 1421.4 761.3C1421.6 761.6 1419.1 765.9 1415.8 771C1412.5 776 1408.5 782.7 1406.9 785.8C1403.6 792.4 1393.5 802.7 1389.8 803.5C1388.4 803.7 1386.6 803.7 1385.7 803.3Z" fill="#F2A741"/>
<path d="M1444.1 910.3C1443.2 909.7 1443.9 907.5 1446.8 902C1449 897.9 1450.8 894 1450.8 893.3C1450.8 892.6 1447.9 887.4 1444.3 881.7C1439.8 874.4 1436.2 870.1 1432.3 867C1429.3 864.6 1426.8 861.9 1426.8 861C1426.8 859 1429.8 849.9 1431 848.4C1431.5 847.8 1434.9 846.8 1438.6 846.1C1446.6 844.8 1450.8 843.3 1450.8 841.7C1450.8 841.1 1450.2 838.8 1449.4 836.6C1448.6 834.4 1447.7 827.8 1447.3 822.1C1446.8 814.2 1446 810.2 1444.2 806.2C1441.7 800.6 1441.2 798.1 1442.6 798.1C1443.1 798.1 1444.2 797.5 1445.2 796.7C1447 795.5 1447 795.2 1445.4 792.9C1443.9 790.5 1443.9 790.2 1446.4 785.7L1449 781.1H1456.7H1464.4L1469.9 776.2L1475.3 771.3L1472.6 765.7L1469.9 760.2L1473.6 759.9C1476.5 759.6 1477.4 759.1 1477.9 757.1C1479 753.2 1478.9 743.3 1477.8 742.6C1477.3 742.2 1475.2 742.4 1473.2 743C1470.4 743.8 1468.9 743.6 1466.7 742.5C1465.1 741.7 1463.8 740.7 1463.8 740.2C1463.8 739.8 1465.6 736.8 1467.9 733.7L1472 728L1476.6 731.3C1479.9 733.7 1481.4 735.5 1481.6 737.4C1481.9 739.4 1482.8 740.5 1485.2 741.5C1487.9 742.6 1488.6 743.5 1489.1 746.7C1489.5 748.8 1490.7 754.4 1491.8 759.1C1493.8 766.8 1494 771.2 1494.5 809.1L1495 850.6L1488.6 864.6L1482.2 878.5L1469.9 882.2C1463.2 884.3 1457.1 886.4 1456.4 887C1455.6 887.6 1454.9 891.1 1454.6 895C1454.3 898.8 1453.2 903.9 1452.2 906.5C1450.7 910.2 1449.8 911.1 1447.8 911.1C1446.4 911 1444.8 910.7 1444.1 910.3Z" fill="#F2A741"/>
<path d="M1503.14 420.896C1499.57 407.057 1503.31 421 1501.31 412.1C1499.21 403.1 1499.6 402.4 1495.2 398.5L1490.6 394.4L1492.3 387.2C1494.4 378.6 1495.2 381.7 1481.6 343.1L1471.5 314.6L1470.8 301.8C1469.9 286.9 1469.5 285.9 1460.1 279.2C1456.5 276.7 1452.5 273.7 1451.1 272.6L1448.8 270.6L1451.3 265.8C1454.9 259.1 1454.1 257.1 1447.8 257.1H1442.9L1438.3 265.6C1435 271.7 1433.8 274.8 1434.2 276.4C1434.6 277.6 1437.8 281 1441.3 283.9C1445.3 287.1 1447.8 290 1447.8 291.1C1447.8 292.2 1447.5 293.1 1447.1 293.1C1446.7 293.1 1443.2 290 1439.3 286.2C1431.7 278.8 1427.7 276.7 1424 278.4C1421.2 279.6 1420.7 279.1 1417.8 271.8C1415.8 266.5 1415.3 266.1 1412.4 266.1C1408.2 266 1407.6 265.5 1403.8 258.8C1401 253.7 1400.2 253 1396.7 252.4C1393.3 251.9 1392.8 251.5 1392.8 249.1C1392.8 245.8 1396 241.4 1404.1 233.7C1407.5 230.4 1411.7 225.4 1413.3 222.7C1415.8 218.5 1416.8 217.6 1419.6 217.3C1422.1 217.1 1423.4 216.3 1424.6 214.1C1426 211.7 1427.5 211 1433 209.7C1443 207.4 1442.9 207.4 1447.2 215.2C1449.3 219.1 1451.6 222.5 1452.4 222.8C1453.2 223.1 1456 221.5 1458.6 219.3C1463.2 215.5 1463.9 215.2 1470.8 215L1478.1 214.7L1479.9 208.2C1480.9 204.6 1481.8 200.3 1481.8 198.6C1481.8 196.9 1482.9 192.7 1484.3 189.2C1485.7 185.7 1486.8 181.3 1486.8 179.5V176.2H1492.6C1495.7 176.2 1498.8 176.5 1499.4 176.9C1500 177.3 1503.5 188.2 1507.2 201.2C1511.6 216.8 1514.8 226.3 1516.8 229.5C1518.5 232.1 1519.8 234.7 1519.8 235.1C1519.8 235.5 1515.8 237.1 1510.9 238.5C1506 239.9 1501.6 241.7 1501.1 242.3C1500.5 243 1499.6 248.6 1499 254.8C1498.1 264.2 1498.1 266.5 1499.3 269.5C1501.6 275 1501.2 275.4 1496.2 272.7C1487.4 267.8 1486.4 269.5 1491.3 281C1493.2 285.5 1494.8 289.7 1494.8 290.2C1494.8 290.7 1493 293.4 1490.8 296.2C1488.6 299 1486.8 301.6 1486.8 302C1486.8 304.3 1511.2 341.7 1513.5 342.9C1514.5 343.4 1517.6 343.5 1520.3 343.2L1521.97 340.1L1522.66 335.727C1524.9 333.215 1526.28 334.024 1527.88 333.524C1529.98 332.924 1531.3 335.3 1532.9 338.2C1533.5 339.4 1536.49 340.911 1538.2 343.675C1544.65 348.05 1552.85 346.324 1558.87 349.299C1556.56 358.334 1557.3 368.447 1556.55 364.039C1555.06 355.278 1559.12 368.914 1562.72 375.414L1578.74 380.596L1579.74 387.139C1572.04 393.739 1574.94 412.397 1574.28 411.285C1570.54 405.019 1574.01 411.413 1589.77 421.543C1593.77 424.243 1588.59 441.848 1593.57 448.432C1601.92 456.443 1602.66 457.433 1606.53 465.078L1611.53 486.59L1523.8 443.59C1518.77 438.915 1513.78 432.319 1513.48 432.419C1513.18 432.519 1506.24 424.296 1503.14 420.896Z" fill="#F2A741"/>
<path d="M1438.4 792C1437.2 789.1 1436.9 786.5 1437.4 783C1438 778.4 1437.8 777.8 1432.9 770.2C1430.1 765.8 1427.4 761 1426.8 759.6C1426.3 758.2 1425.5 757.1 1425.1 757.1C1424.7 757.1 1420.1 758.4 1414.9 760.1C1403.8 763.6 1403.8 763.6 1398.7 761L1394.7 759L1384.9 764.5C1379.4 767.6 1374.7 770.1 1374.4 770.1C1374.1 770.1 1373.8 769.4 1373.8 768.5C1373.8 767.6 1370.9 764 1367.3 760.5C1361.1 754.4 1360.5 754.1 1355.9 754.1C1351.5 754.1 1351 753.8 1349.1 750.3C1347.6 747.6 1346.9 744.2 1346.6 737.6C1346.2 729.1 1346.3 728.2 1349.5 721.3C1351.3 717.3 1352.8 712.9 1352.8 711.5C1352.8 710.2 1354.2 707.6 1355.9 705.7C1358.4 702.8 1358.7 701.8 1357.9 700.2C1357.3 699.1 1356 697.7 1355 697.2C1352.7 695.8 1354 694.7 1361.3 691.7C1364.6 690.4 1367.7 688.7 1368.1 687.9C1369 686.4 1358.6 663.1 1357 663.1C1356.5 663.1 1354 665.5 1351.4 668.5C1347.5 673 1346.1 674 1343 674.3C1339.3 674.6 1339.3 674.6 1339.6 678.7C1340 682.8 1339.9 682.9 1332.4 688.5C1328.2 691.6 1324.4 694.1 1323.9 694.1C1323.4 694.1 1322 692.4 1320.9 690.4C1318.5 686.4 1317.5 686.4 1307.6 689.5C1303.2 690.9 1302.8 690.8 1302.8 689.3C1302.8 684.6 1306.1 669.7 1309 661.8C1311.6 654.4 1312 652.3 1311.2 649.3C1310.4 646.1 1309.7 645.4 1306.1 644.1L1301.8 642.6L1294.3 647.9C1290.2 650.7 1286.4 653.1 1285.9 653.1C1284.8 653.1 1281.8 643.3 1281.8 639.6C1281.8 638.1 1282.3 636.1 1282.8 635C1284.8 631.3 1282.9 628.2 1276.1 624.3L1269.7 620.6L1270.4 616.6C1271.5 610 1271.5 609.8 1267.5 607.2C1264.3 605 1263.9 604.5 1265.2 603.3C1266.3 602.1 1266.5 599.1 1266.1 587.7L1265.6 573.6L1275.5 568.5L1285.3 563.5L1285.1 557.5L1284.9 551.4L1291.1 549.5L1297.3 547.6L1297.8 540.1L1298.3 532.6L1301.8 532.2C1308.7 531.6 1308.6 531.4 1296.5 515.8C1290.1 507.6 1288.8 505.3 1287.9 500.4C1286.5 493 1286.4 493.7 1289.9 489.6C1293.4 485.7 1293.3 484.6 1288.8 477.1C1287.3 474.5 1285.5 470.8 1284.7 468.7C1283.5 465.5 1283.6 464.9 1285.1 463.3C1286.5 462 1288.3 461.6 1293.1 461.9C1296.5 462 1301.3 461.5 1303.8 460.8C1307.6 459.6 1308.7 458.7 1310.8 454.7L1313.3 450.1H1319.1H1325L1324.3 444.8L1323.7 439.6L1328.6 435.8C1333.5 432.1 1333.7 432 1338.3 433.1C1345.5 434.7 1350.4 437.7 1353.7 442.4L1356.7 446.8L1353.8 450.8L1350.9 454.7L1353.4 458.4C1356.2 462.5 1358.2 462.9 1361.8 460.1C1364 458.4 1365.9 458.1 1376.6 458.1C1386.5 458.1 1388.8 458.3 1388.8 459.5C1388.8 460.3 1386.6 461.6 1383.6 462.6C1376.7 464.9 1375.7 465.8 1376 469.4C1376.3 472.2 1375.9 472.6 1372 474C1369.6 474.9 1367.1 476.5 1366.5 477.6C1365.9 478.7 1361.3 484.5 1356.3 490.6C1351.3 496.6 1346.7 502.3 1345.9 503.3C1344.8 504.8 1344.9 505.9 1346.9 510.6C1349.4 516.6 1349.3 517.9 1345.3 528.2L1343.5 532.8L1347.2 538.8L1351 544.9L1347.9 557.3L1344.8 569.8L1346.4 583.8L1348 597.9L1343.4 619.5C1340.8 631.4 1339 641.6 1339.3 642.1C1339.7 642.6 1341.9 643.1 1344.2 643.1C1347.7 643.1 1349.9 642.2 1355.1 638.6C1358.8 636.1 1362.2 634.1 1362.7 634.1C1363.3 634.1 1365.6 636.3 1368 639.1C1373 644.9 1376.1 645.7 1376 641.1C1376 640.8 1375.7 639.6 1375.4 638.4C1374.9 636.7 1375.3 635.9 1376.9 635C1379.6 633.6 1381 634.9 1382.7 640.8C1383.5 643.8 1384.4 645.1 1385.7 645.1C1387.7 645.1 1396.8 635.9 1396.8 634C1396.8 633.3 1395.4 630.3 1393.6 627.3L1390.5 621.8L1394.7 617.8C1398.7 614.1 1399.2 613.9 1403.6 614.5C1406.2 614.8 1412.5 615.4 1417.6 615.7C1427.5 616.3 1427 616 1428 622.5C1428.2 623.7 1431.4 626.1 1436.8 629.1L1445.3 633.8L1447 641.7C1449.6 654.2 1455.5 665.8 1464.9 676.7C1469.4 681.9 1476.2 691.4 1480 697.9L1487.1 709.5L1487.8 723.5C1488.2 731.3 1488.1 738 1487.7 738.5C1486.6 739.7 1483.8 737.3 1483.8 735C1483.8 733.3 1473.7 725.1 1471.7 725.1C1470.1 725.1 1460.8 738.6 1461.1 740.5C1461.2 741.7 1463 743.5 1465.2 744.7C1468.3 746.4 1469.7 746.7 1472.2 746C1473.9 745.5 1475.4 745.1 1475.6 745.1C1475.7 745.1 1475.8 747.8 1475.8 751.1V757.1H1472.7C1471.1 757.1 1468.8 757.5 1467.7 758.1C1465.8 759.2 1465.8 759.4 1468.9 764.8L1472.1 770.4L1468 774.2C1463.9 778 1463.8 778.1 1455.9 778.1H1447.9L1444.3 783.6C1440.6 789.5 1440.2 791 1441.9 792.8C1443.1 793.9 1442.4 796.1 1440.9 796.1C1440.4 796.1 1439.3 794.2 1438.4 792Z" fill="#F2A741"/>
<path d="M1355.6 456.6C1354.7 454.5 1354.9 453.6 1357.3 450.5L1360 446.9L1356.4 441.5C1352.6 435.8 1346.8 432 1339.8 430.6C1337.9 430.2 1335.6 429.7 1334.7 429.5C1333.8 429.2 1331 430.6 1328.5 432.6C1325.9 434.6 1323.3 435.9 1322.8 435.6C1322.3 435.2 1321.8 433.4 1321.8 431.4C1321.8 428.4 1320.8 426.8 1314.9 420.7C1306.1 411.6 1302.8 405.2 1302.8 397.2V391.3L1309.4 387.9C1313.1 386.1 1316.3 384 1316.6 383.3C1316.8 382.5 1315.2 380 1312.9 377.6L1308.7 373.4L1314.5 368.2C1318.7 364.5 1320.9 363.2 1322.3 363.6C1323.4 363.9 1325.5 364.4 1327 364.7L1329.7 365.3L1329.1 360.2C1328.6 355.4 1328.7 354.9 1332.5 350.4C1334.7 347.7 1336.8 345 1337.2 344.3C1337.6 343.6 1335.5 340.6 1331.8 336.5L1325.6 329.9L1326.3 325.1C1326.9 320.4 1326.9 320.3 1323.3 318.1C1320.4 316.3 1319.8 315.4 1320.3 313.7C1322.1 307.9 1322 307.4 1318.9 305.1C1317.2 303.9 1315.8 302.6 1315.8 302.1C1315.8 301.7 1318.8 299.4 1322.4 297C1326 294.6 1329.4 291.7 1329.9 290.4C1330.5 288.7 1331.5 288.1 1333.7 288.1C1337.3 288.1 1337.3 288.1 1339.1 280.2C1340.5 274.4 1340.4 273.9 1338.6 271.6C1336.8 269.2 1336.8 269.2 1338.7 268.1C1340.1 267.4 1340.9 267.5 1342 268.8C1342.7 269.7 1345 271.6 1347.1 273.1L1350.8 275.9L1359.9 272.5C1365.5 270.4 1370.5 267.8 1372.8 265.7C1375.7 263.1 1377.7 262.2 1382 261.6C1385.5 261.2 1388.8 260 1390.9 258.5C1396.2 254.6 1398.3 255.2 1402.6 262.1C1405.8 267.3 1406.7 268.1 1409.4 268.1C1413.1 268.1 1413.8 268.9 1416.2 275.2C1417.1 277.7 1418.4 280.5 1419.1 281.5C1420.4 283.2 1420.6 283.2 1423.7 281.6C1426.7 280 1427.1 280.1 1430.1 282C1431.9 283.1 1436 286.7 1439.3 290C1442.6 293.3 1445.8 296.1 1446.4 296.1C1447.3 296.1 1452.8 319.8 1452.8 323.5C1452.8 324.4 1448.1 324.1 1445.1 323C1443.6 322.4 1440.4 319.7 1438 317C1435.6 314.3 1432.8 312.1 1431.7 312.1C1430.4 312.1 1427.4 315.7 1422 323.8C1417.7 330.3 1413.9 336.3 1413.6 337.2C1412.9 338.9 1414 343 1422.3 370C1427.7 387.5 1430.9 394.4 1435.3 398C1436.7 399.2 1437.3 399.1 1439.8 397.2C1443 394.9 1444.8 394.5 1444.8 396.1C1444.8 396.7 1442.6 399.7 1440 402.9C1435.8 408 1434.9 410 1432.4 419.6C1429 432.5 1428.3 434.1 1426 434.1C1422.5 434 1421.9 432.8 1423.1 428.3C1424.4 423.6 1423.5 422.1 1419.3 422.1C1416.7 422.1 1394.8 434.9 1394.1 436.9C1393.7 437.7 1394.3 440.7 1395.3 443.6C1396.3 446.5 1396.8 449.3 1396.4 449.9C1396.1 450.5 1394.2 451.4 1392.3 452.1C1390.4 452.7 1388.8 453.6 1388.8 454.1C1388.8 454.7 1383.4 455.1 1376.6 455.1C1366 455.1 1363.9 455.4 1361.3 457.1C1357.5 459.6 1357 459.6 1355.6 456.6Z" fill="#F2A741"/>
<path d="M1345.5 268.9C1341.1 265.2 1340.5 264.9 1338.1 266C1335.7 267.1 1335.2 266.8 1331.6 263.4L1327.8 259.6L1319.8 259.9L1311.7 260.2L1307.8 255.9C1304 251.8 1303.8 251.2 1303.8 245.2C1303.8 239.4 1304.1 238.5 1307.3 234.6C1309.9 231.5 1310.8 229.4 1310.8 226.7C1310.8 224.1 1311.7 221.9 1314 219.1C1317.1 215.2 1317.1 215.2 1315.2 213.1C1311.6 209.1 1304.3 204.5 1297.8 202.2C1294.2 200.9 1290.9 199.5 1290.4 199C1289 197.8 1292 192.1 1300.2 180.7C1308.8 168.9 1309.8 167.1 1309.8 163.8C1309.8 162.4 1310.4 160.9 1311 160.5C1311.7 160.1 1317.2 159.5 1323.2 159.1C1330.1 158.6 1334.5 157.9 1335.3 157C1337 155.2 1337.9 142.6 1336.4 140.8C1335.7 139.8 1332.8 139.2 1327.8 139C1321.8 138.7 1319.7 138.2 1317.1 136.2C1315.3 134.9 1313.8 133.1 1313.8 132.4C1313.8 131 1324.8 110.9 1331.1 100.9C1334.2 95.9001 1345.8 85.1001 1359.9 74.2001C1373.8 63.4001 1408.2 40.2001 1410.3 40.2001C1411.4 40.2001 1414.8 41.1001 1417.8 42.2001C1420.8 43.3001 1424.2 44.2001 1425.3 44.1001C1428 44.1001 1438.2 36.9001 1438.7 34.7001C1439.2 32.2001 1437.4 31.4001 1429.1 30.6001C1421.7 29.9001 1420.2 28.8001 1423.3 26.2001C1424.1 25.5001 1425.7 22.0001 1426.8 18.3001C1428.8 11.7001 1428.8 11.6001 1437 6.30008C1441.4 3.30008 1445.8 0.700079 1446.7 0.500079C1447.6 0.300079 1449.9 1.50008 1451.8 3.10008L1455.3 6.00008L1453.5 12.8001C1450.5 24.5001 1450 24.0001 1468.3 27.2001C1474.8 28.3001 1480.8 29.7001 1481.5 30.3001C1484.8 33.1001 1481.5 40.2001 1476.9 40.2001C1473.4 40.2001 1472.1 41.3001 1466.8 48.5001C1462.8 54.0001 1462.4 54.4001 1459.2 53.9001C1456.4 53.4001 1455.1 53.9001 1450.9 57.3001C1445.7 61.4001 1445.3 62.1001 1444.3 68.7001C1443 76.7001 1443.6 76.2001 1434.5 75.5001C1424.4 74.8001 1423.4 75.5001 1424.4 83.1001C1424.8 85.8001 1425.6 88.8001 1426.2 89.6001C1426.9 90.6001 1431 91.7001 1437.2 92.6001C1442.6 93.4001 1447.5 94.4001 1447.9 94.9001C1448.4 95.4001 1449.7 99.3001 1450.8 103.7L1452.8 111.6L1448.4 118.1C1442.9 126 1443.4 127.2 1452.2 127.2C1457.6 127.2 1459 126.7 1463.5 123.7C1469.3 119.8 1469.9 119.7 1477.8 121.3C1482.7 122.3 1484 122.2 1489.4 120.3C1497.4 117.5 1499.9 117.6 1503.2 121L1506 123.9L1498.5 131.9L1491 139.9L1494.9 155.7C1497.1 164.4 1498.7 172.1 1498.4 172.8C1498 173.8 1495.8 174.2 1490.8 174.2H1483.8V178.7C1483.8 181.3 1482.7 185.8 1481.3 189.2C1479.9 192.4 1478.8 196.6 1478.8 198.4C1478.8 200.2 1478.2 203.9 1477.5 206.7L1476.2 211.7L1469.2 212.2C1463 212.6 1461.7 213.1 1458.4 215.9C1456.4 217.7 1454.2 219.2 1453.5 219.2C1452.9 219.1 1450.6 216 1448.5 212.2C1444.3 204.2 1444.1 204.2 1433.4 206.7C1424.7 208.7 1424.2 208.9 1423 211.6C1422.3 213.3 1420.8 214.2 1418.1 214.6C1414.7 215.2 1413.9 216 1410.4 221.8C1408.3 225.4 1404.1 230.4 1401.2 232.9C1393 239.9 1390.8 243.6 1390.8 250.4C1390.8 257.2 1389.1 258.8 1380.7 259.8C1376.5 260.3 1374.6 261.1 1371.4 264.1C1367.9 267.2 1354.8 273.1 1351.3 273.1C1350.8 273.1 1348.1 271.2 1345.5 268.9Z" fill="#F2A741"/>
<path d="M1142.8 691.9C1135.8 686.6 1135.1 685.6 1131.9 677C1130 672.2 1126.4 667 1112.9 650.1L1110.2 646.7L1103.9 649.4L1097.6 652.1L1091.3 646L1084.9 639.9L1077.6 640.5C1073.6 640.9 1069.6 641.4 1068.7 641.7C1067.9 641.9 1064.6 647.4 1061.5 653.8C1057.2 662.7 1055.6 667.1 1055.2 671.8C1054.7 676.1 1053.9 678.6 1052.6 679.8C1050.7 681.5 1050.5 681.4 1047.9 678.1C1046 675.8 1044.6 674.9 1043.5 675.4C1040.4 676.5 1026.3 686.3 1022.7 689.8L1019.1 693.2L1016 690.5C1012.2 687.4 1012.1 686.6 1014.4 663.9C1015.3 655.1 1015.7 647.3 1015.5 646.6C1015.2 645.9 1013.5 645 1011.8 644.6C1009.6 644.1 1007.6 642.3 1004.7 638.4C1001.1 633.5 1000.7 632.4 1001.2 629C1001.5 627 1002.1 624.5 1002.4 623.7C1002.8 622.6 1001.7 621.3 998.4 619.3C995.6 617.6 993.9 615.8 993.8 614.7C993.8 612.6 990 605.6 986.1 600.3C984.4 597.9 982.6 596.9 979.7 596.4C976 595.8 975.8 595.7 977.4 594C978.7 592.5 978.8 591.6 977.9 588.8C975.8 582.6 974.7 582.2 959.8 581.8L946.3 581.6L946 576.8C945.8 573.7 946.4 570.6 947.8 567.5C948.9 564.9 949.8 561.9 949.8 560.9C949.8 559.8 947.7 556 945.2 552.5C941.5 547.3 940.5 544.9 939.8 539.7C938.7 532.4 938 530.1 936.7 530.1C934.4 530.1 934.9 526.9 937.9 522.8L941.1 518.2L937.4 499.4L933.8 480.6L928.7 475.5L923.6 470.3L929.3 464.6C934.7 459.2 935.3 458.9 938.9 459.3C944.2 460.1 945.3 458.3 946.7 447.1C947.4 441.8 948.2 436.8 948.5 435.8C948.7 434.8 951.9 430.7 955.4 426.8C958.9 422.8 961.8 418.8 961.8 417.9C961.8 415.1 946.4 392.8 941.8 388.8C937.7 385.3 937.3 384.5 935.3 375.3C934.1 370 933.3 364.9 933.5 364.1C933.9 362.5 940 358.1 941.8 358.1C942.3 358.1 943.7 359.9 944.8 362.1C947.5 367.4 949.8 367.3 952.6 361.6C955.3 356 957.4 354.7 967.7 352.1C976.1 350.1 977.8 350.1 977.8 352.5C977.8 354.6 983.7 359.1 986.4 359.1C987.7 359.1 994.1 356.9 1000.6 354.2C1007 351.5 1013.3 349 1014.5 348.7C1017.8 347.6 1018 345.5 1015.3 339.4C1012.4 333 1012.3 331.2 1014.2 328.5C1015.4 326.9 1016.7 326.7 1023.2 326.9C1030.5 327.2 1031 327.1 1034.4 324.1C1036.3 322.5 1038.3 321.1 1038.7 321.1C1039.2 321.1 1044.2 325.2 1049.9 330.3C1057.8 337.5 1059.7 339.6 1058.2 339.9C1056.1 340.3 1053.8 341.9 1053.8 343.1C1053.8 343.5 1057.3 346.4 1061.5 349.6C1068.3 354.7 1071 356 1082.7 359.8C1100.6 365.5 1100.7 365.4 1095.5 349.8C1093.5 343.6 1091.8 337.7 1091.8 336.8C1091.8 335.4 1093.1 335.2 1101.1 335.4L1110.3 335.6L1112.3 329.8C1113.4 326.7 1114.9 323.9 1115.7 323.6C1116.5 323.3 1119.9 322.7 1123.2 322.4C1131.1 321.6 1133 320.6 1132.3 317.8C1131.8 316.1 1132.8 314.6 1136.3 311.2C1138.8 308.8 1140.8 306.5 1140.8 306C1140.8 305.5 1137.7 302.7 1133.8 299.9C1126.6 294.7 1126.2 294.1 1125.5 285.8C1125 280.2 1125.4 279.6 1133.6 275C1151.6 264.8 1163.3 257.5 1169.3 252.5C1175.4 247.5 1176.5 247 1180.2 247.3C1184.6 247.6 1184.5 247.4 1183.1 254.2C1182.8 255.8 1183.1 257 1184 257.3C1185.4 257.8 1217.6 251 1219.6 249.7C1220.3 249.3 1224.6 241.4 1229.3 232.2L1237.8 215.4L1245.8 211.2C1253.7 207.1 1253.9 207.1 1259.5 208.1C1263.8 208.9 1265.8 209.9 1267.5 211.9C1268.7 213.4 1269.8 215 1269.8 215.4C1269.8 215.7 1270.7 216.3 1271.8 216.7C1274.8 217.6 1285.6 209.9 1287.4 205.5C1289.1 201.6 1288.9 201.6 1299.1 205.7C1305.1 208.1 1312.8 213.6 1312.8 215.3C1312.8 215.9 1311.9 217.5 1310.8 218.9C1309.7 220.3 1308.8 222.8 1308.8 224.4C1308.8 227.9 1307.5 230.5 1303.7 235C1301.1 237.9 1300.8 238.9 1300.8 245.4C1300.8 251.5 1301.2 253.1 1302.8 254.5C1303.9 255.5 1305 257.1 1305.3 258.1C1306.3 261.3 1313 263.4 1320.1 262.6L1326.5 261.9L1332 268L1337.6 274.2L1336.4 279.4C1335.3 284.2 1335 284.6 1331.8 285.1C1329.2 285.5 1328.3 286.2 1327.8 288C1327.4 289.7 1324.7 292.1 1319.6 295.5C1315.3 298.3 1311.9 301.2 1311.9 302.1C1311.8 302.9 1313.4 304.6 1315.4 305.9C1318.3 307.8 1318.9 308.6 1318.3 310.4C1316.4 316.5 1316.5 316.9 1320.2 319.2C1323.7 321.5 1323.9 321.7 1323.3 326.1C1322.7 330.6 1322.8 330.8 1328.2 336.6C1331.3 339.9 1333.8 343.1 1333.8 343.7C1333.8 344.3 1332 346.9 1329.7 349.5C1326.2 353.4 1325.7 354.6 1326 357.7C1326.4 361.2 1326.4 361.2 1323.1 360.6C1320 360 1319.1 360.5 1312.8 366.1C1308.9 369.5 1305.8 372.8 1305.8 373.5C1305.8 374.1 1307.4 376.2 1309.3 378.1C1311.3 380 1312.7 381.9 1312.5 382.4C1312.4 382.8 1309.6 384.7 1306.3 386.4L1300.3 389.6L1300 396.1C1299.6 405.3 1303.5 413.5 1312.2 421.8L1318.5 427.9L1319.9 436.2C1321.9 448.1 1322.1 447.6 1316.4 447.6C1311.5 447.6 1311.4 447.6 1309.1 452.2C1306.2 458 1302.8 459.4 1291.9 459.2C1284.5 459 1284.2 459.1 1282.5 461.9C1281.6 463.6 1280.8 465.5 1280.8 466.3C1280.8 467.1 1282.9 471.6 1285.4 476.4L1289.9 485.1L1286.8 489L1283.6 492.9L1285.2 500.4C1286.6 507.5 1287.3 508.7 1294.8 518.2C1303 528.6 1303.4 530 1298.2 530.1C1295.9 530.1 1294.8 533.6 1294.8 541.6V545.6L1288.6 547.6L1282.3 549.6L1282.6 555.6L1282.9 561.6L1273.1 566.8L1263.3 571.9L1263.7 586.4C1264 600.3 1263.9 600.9 1261.9 602C1258.7 603.7 1259.4 605.7 1264.1 608.3C1268.5 610.8 1268.5 610.9 1267.4 617.8L1266.7 621.9L1273.2 625.7C1276.8 627.8 1280 630.1 1280.3 630.9C1280.6 631.7 1280.3 633.9 1279.6 635.8C1278.5 638.7 1278.7 640.4 1280.6 647.8C1283.1 657.6 1282.9 658.3 1276.3 660C1272.5 660.9 1271.5 661.8 1268.3 666.9C1264.9 672.4 1264.4 672.9 1259 674.1C1255.3 675 1250.4 677.5 1244.6 681.4C1236.3 687 1235.5 687.3 1231.4 686.6C1228 686.1 1225.9 686.5 1221.3 688.5C1214 691.8 1213 691.7 1206.8 687.9L1201.7 684.7L1193.4 687.4C1184.4 690.3 1174.9 690.9 1167.5 688.9C1163.3 687.8 1163.1 687.8 1156.8 692.4C1153.3 695 1150.2 697 1149.9 697C1149.6 697 1146.4 694.7 1142.8 691.9Z" fill="#F2A741"/>
<path d="M1109.4 265.3C1108.4 258.8 1108.6 258 1112.4 256.5C1116.4 254.8 1124.9 254.9 1125.5 256.7C1125.9 257.8 1116.6 265.5 1112.1 267.9C1110.3 268.9 1110 268.6 1109.4 265.3Z" fill="#F2A741"/>
<path d="M1069.9 247.5C1067.4 246.7 1065 245.7 1064.5 245.1C1063.5 244.1 1060.9 232.3 1060.8 228.3C1060.8 226.1 1061 226 1069.6 226.3L1078.3 226.7L1078 223.7C1077.9 222 1077.7 219.5 1077.5 218.2C1077.4 216.3 1077.8 215.7 1079.3 215.7C1080.7 215.7 1081.5 216.7 1082.1 219.5C1083 223.1 1083.6 223.7 1089.9 226.5L1096.7 229.7L1091.7 236.2C1081.1 249.9 1079.7 250.6 1069.9 247.5Z" fill="#F2A741"/>
<path d="M1092.3 222.4C1084.6 218.2 1085 212.8 1093.1 211.5C1096.3 211 1096.6 211.2 1097.7 214.2C1098.9 217.9 1099.2 225.2 1098.1 225.1C1097.6 225.1 1095.1 223.9 1092.3 222.4Z" fill="#F2A741"/>
<path d="M1109 208C1106.3 205.2 1107.9 203.6 1118.3 198.4C1131.8 191.7 1132.3 191.7 1131.4 198.2C1131 200.9 1130.5 203.8 1130.2 204.5C1129.9 205.3 1126.2 206.6 1122 207.5C1112.8 209.5 1110.6 209.6 1109 208Z" fill="#F2A741"/>
<path d="M1543.3 726.4C1541.7 725.5 1539.5 724.1 1538.4 723.2C1534.6 719.9 1524.9 706.3 1520.3 697.8C1516.2 690.2 1515.1 688.8 1511.4 687.2C1507.9 685.7 1503.8 681.3 1489.2 663.5L1471.3 641.8L1463.2 638C1453.1 633.4 1448.3 629.1 1441.9 619.1C1436.5 610.7 1435.8 607.8 1438.5 604.9C1439.8 603.4 1440 602.2 1439.2 598.3C1438.3 593.5 1437.9 593.1 1430.3 589.8C1426.9 588.4 1426.4 586.3 1429.1 584.7C1430.6 583.7 1431.8 584.6 1437.3 590.3C1440.8 594 1447.3 600.2 1451.8 604.1C1456.9 608.6 1460.4 612.6 1461.4 614.9C1462.7 618.3 1464.6 619.6 1481.1 628.7C1512.2 646 1521.3 651.2 1522.2 652.1C1522.8 652.6 1520.5 654.2 1516.5 656C1512.8 657.7 1509.5 659.7 1509.2 660.5C1508.9 661.3 1511 667.3 1513.8 673.8C1516.7 680.3 1520.1 688.1 1521.5 691.2C1524.4 697.8 1525.2 698.2 1546 705.1C1558.9 709.3 1565.3 713.1 1559.2 713C1557.6 713 1553.8 712.6 1550.8 712.1C1546.8 711.5 1544.9 711.6 1544 712.5C1542.6 713.8 1542.5 713.5 1547.4 724.8C1549.1 728.6 1548.1 729 1543.3 726.4Z" fill="#C0C0C0"/>
<path d="M749 949.3C746.3 949 745.1 948 742.8 944.3C741.1 941.8 739.6 938.9 739.3 938C738.5 935.5 736.4 935 733.3 936.6C730.5 938.1 722.2 938.4 717.8 937.2C715.2 936.5 701.5 918.3 702.4 916.8C702.7 916.4 704 916.1 705.3 916.1C707.3 916.1 708 915.3 709 912C710 908.5 710 907.7 708.7 907C703.2 903.8 703.3 903.7 712.1 900.8C720.3 898.1 720.7 897.8 724.7 892.1C729.1 885.8 729.8 885.5 736 887C740.4 888 741.2 887.3 742.3 881.6C743.6 874.1 743.7 874 752.7 876C757 877 761 878.1 761.6 878.5C763.2 879.4 761.9 882.2 758.6 885.1C755.8 887.4 755.7 887.9 756 894.5L756.3 901.5L760.7 902.8C764.5 903.8 765.5 903.8 767.3 902.6C769.4 901.3 769.6 901.5 772.6 907.9C774.3 911.6 776.7 916.3 777.9 918.3L780.2 922.1L777.4 925L774.5 928L777.6 931.5C780.6 934.9 780.9 937.5 778.5 938.3C777.8 938.6 773.5 939.6 768.9 940.7C761.5 942.4 760.2 943 757.5 946.3C755.8 948.4 754 950 753.4 949.9C752.8 949.8 750.8 949.6 749 949.3Z" fill="#C0C0C0"/>
<path d="M665.8 828.2L655.5 832.5C648.1 835.5 642 837.3 634 838.5L621.4 841.4C624.4 846.2 626.6 852.8 635.9 878.9C639.9 890.1 643.4 899.1 643.7 899.1C644.1 899.1 646.1 896.8 648.2 894C653.7 886.6 655.7 887.8 659.3 900.4L660.9 906.1L666 906.2C668.9 906.3 676.3 906.3 682.4 906.1L693.5 905.9L696.7 910.4C699.4 914.1 700.4 914.8 702.4 914.4C703.8 914.1 705.3 913 706 911.9C707.2 909.6 706.8 909.3 700.8 905.9C698.1 904.4 697.8 903.8 698.8 902.6C699.5 901.7 700.4 901.1 701 901.1C701.6 901.1 705.8 899.9 710.5 898.5C718.6 896 718.8 895.9 723.4 889.5L728 883L733.4 883.5C738.6 884.2 738.7 884.3 739.3 881.5C739.7 879.9 740.6 876.8 741.4 874.5C742.5 871.5 742.7 868.3 742.2 862L741.5 853.6L731.9 842.4C726.6 836.2 721.8 831.1 721.2 831.1C720.6 831.1 719.5 831.8 718.8 832.6C716.6 835.3 714.3 836 704.8 837.1L695.5 838.1L690.5 843.6C687.7 846.7 684.9 849.1 684.3 849C683.7 848.8 679.1 844.1 674.5 838.5L665.8 828.2Z" fill="#C0C0C0"/>
<path d="M976.3 906.7L967.3 904.5L964.2 895.7C962.4 890.9 960.8 886.8 960.6 886.5C959.8 885.8 918.6 876.9 915 876.7C910.3 876.4 908.5 873.7 909.1 868.1C909.5 865 910.3 863.1 912 861.9C914.7 859.8 914.5 860 919.4 854.3C923.9 849.1 927 848.9 927.8 853.6C928.3 856.3 929.5 857.2 940.8 862.8C949.4 867 954.5 869 957.2 869C960 869 962.9 870.2 966.9 872.8C972.1 876.1 972.7 876.9 972.5 879.6C972.3 882.3 972.6 882.6 975.8 882.9C978.1 883.1 980 884 981.5 885.8L983.7 888.5L988.3 886.2C994.1 883.3 995.8 881.5 995.8 878.4C995.8 876.7 997.9 873.5 1002.2 868.7C1005.7 864.8 1009.1 859.9 1009.7 858C1010.7 855 1018.4 845.4 1030.9 831.8C1032 830.6 1033 826.7 1033.7 820.8C1036 800.8 1036.1 798.4 1034.5 795.9C1033.7 794.6 1031.7 789.6 1030.2 784.8C1027.4 776.1 1027.4 776 1029 770C1030.8 763.3 1031.2 764.2 1024.1 758.4C1020.7 755.7 1022.1 752.5 1027.9 749.5C1031.4 747.7 1032.8 746.4 1033.3 744.2C1033.9 741.5 1034.2 741.3 1041.1 740.7C1048.5 740.1 1050.8 738.7 1050.8 734.9C1050.8 732.8 1051.8 732.7 1057.1 734.1C1060.3 735 1061.3 734.9 1062.7 733.6C1065.1 731.5 1066.3 731.7 1067.6 734.6C1068.9 737.4 1069 737.4 1077.4 736C1082.5 735.1 1084.6 734.1 1088.2 730.9C1091.9 727.7 1092.8 726.2 1093.4 722.3C1093.9 718.7 1094.9 716.8 1097.7 714.3C1103 709.4 1105.9 710.1 1101.8 715.3C1098.9 719.1 1099.3 723.1 1103.6 731.3C1110.3 744.2 1114.4 749.8 1117.5 750.5C1119 750.8 1122.7 752.5 1125.6 754.1C1130.5 756.9 1130.8 757.4 1130.8 761C1130.8 764.3 1130.4 765 1127.8 766.1C1124.3 767.5 1118.5 774.1 1110.7 785.5C1107.7 789.8 1104.8 794.1 1104.1 795C1102 797.8 1104.8 805.3 1108.6 807C1114.2 809.5 1113.7 813.3 1106.4 822C1103.4 825.7 1099.7 828.6 1095.1 831C1088.8 834.3 1088.3 834.9 1087.5 838.7C1086.9 841.8 1085.7 843.6 1082.8 846C1080.6 847.7 1077.9 851 1076.8 853.1C1074.9 856.8 1074.5 857.1 1070.5 857.1C1067.3 857.1 1065.2 857.8 1062 860.1C1059.3 862.2 1057.2 863 1055.9 862.6C1053.3 861.8 1046.8 865 1046.8 867.2C1046.8 868.2 1047.3 870.1 1047.9 871.4C1048.9 873.5 1048.7 874.4 1046.9 876.9C1043.8 881.3 1044.2 883.7 1048.4 885.9L1052 887.7L1048.5 890.1C1045.9 891.9 1044.8 893.4 1044.4 896.3C1043.7 900.7 1043.1 900.8 1032.5 898.4C1027.1 897.2 1022.9 897 1015.5 897.4L1005.6 898.1L997.8 903.6C993.2 906.8 989 909 987.7 909C986.4 908.9 981.3 907.9 976.3 906.7Z" fill="#C0C0C0"/>
<path d="M1050.9 904.8C1047.4 902 1046.9 901.1 1047.1 898.1C1047.3 895.3 1048.1 894.1 1051.5 891.6C1053.8 889.9 1055.7 888 1055.7 887.2C1055.8 886.5 1054 885.2 1051.8 884.2C1047.2 882.3 1047 881.4 1049.9 877.6C1051.8 875.2 1052 874.5 1051 871.2C1050 868.1 1050.1 867.4 1051.6 866.3C1052.6 865.5 1054.5 865.2 1056.2 865.5C1058.4 865.9 1059.9 865.4 1063 863C1065.7 860.8 1068.4 859.7 1072.1 859.2C1076.7 858.6 1077.5 858.2 1078.8 855.3C1079.7 853.5 1082.4 850.1 1085 847.6C1088.1 844.6 1089.8 842.1 1090.2 839.6C1090.8 836.4 1091.5 835.7 1097.1 833.2C1102.2 830.8 1104.3 829 1109.1 823C1114.5 816.2 1114.9 815.3 1114.6 811.1C1114.3 807.1 1113.9 806.4 1111.1 805.1C1106.5 803.2 1104.8 797.8 1107.6 794.7C1108.7 793.5 1111.3 789.9 1113.5 786.6C1119.7 776.8 1126.1 769.3 1128.8 768.6C1132.8 767.5 1133.8 766.1 1133.8 761.4C1133.8 758 1133.2 756.5 1131.4 754.7C1128.5 752.1 1120.7 748.1 1118.4 748.1C1115.9 748.1 1103.3 727.4 1102.6 722.1C1102.3 719.9 1102.8 719.6 1108.9 718.5C1120.7 716.3 1124.4 713.2 1123.3 706.3C1122 698.3 1121.9 698.2 1118.3 697.5C1113.7 696.6 1111.8 693.1 1111.8 685.2C1111.8 678.2 1112 678.1 1121.6 678.1H1128.3L1130.3 683.2C1132 687.6 1133.6 689.5 1140.3 694.7C1144.7 698.2 1150.9 702.4 1154 704.2C1159.4 707.1 1159.7 707.5 1159.5 710.8C1159.3 713.8 1159.8 714.5 1163 716.4L1166.7 718.5L1169.1 716.3C1170.4 715.1 1171.7 714.1 1172.1 714.1C1172.4 714.1 1174.1 716.1 1175.9 718.6C1177.7 721 1179.7 723.1 1180.3 723.1C1181 723.1 1182.7 722.1 1184.2 721C1185.7 719.8 1187.1 719 1187.3 719.2C1187.4 719.4 1188.5 722.8 1189.7 726.7C1190.9 730.8 1192.9 734.9 1194.3 736.3L1196.8 738.8L1194.7 741.4C1193.6 742.9 1192.8 744.7 1193 745.4C1193.2 746.2 1196.2 749.1 1199.7 752L1206 757.3L1200.4 762.9C1196.3 767.1 1194.2 770.3 1192.4 775.3C1189.5 782.8 1189.7 784.6 1193.6 785.5C1195.1 785.9 1198.3 788.4 1200.7 791.1L1205.1 796.1L1202.4 802.1C1199.8 807.9 1199.7 808.6 1200 823C1200.3 837.1 1200.4 838 1202.7 840.5C1205.5 843.4 1204.7 845 1199.7 847.1C1197.5 848 1196 849.8 1194.3 853.7C1192.8 857.1 1191.1 859.4 1189.6 859.9C1184.5 861.9 1178.3 862.1 1173.3 860.6C1165.7 858.3 1164.4 858.6 1161.3 863.1C1158.2 867.6 1157.7 867.7 1150.1 865.5C1143.5 863.6 1135.4 864 1133 866.5C1132.1 867.4 1129.1 872 1126.3 876.8C1121.5 885.1 1120.7 885.9 1108.7 894.7L1096.2 904L1079.5 906C1056.9 908.8 1055.9 908.8 1050.9 904.8Z" fill="#C0C0C0"/>
<path d="M839.9 265.3C839.9 264.4 840.7 258 841.7 251.3C843.1 241.9 844 238.7 845.4 237.7C848.2 235.6 849.5 235.9 851 238.9C852.2 241.1 853 241.5 855.9 241.4C859.4 241.2 859.5 241.3 862.5 248.1C864.8 253.1 865.3 255.2 864.5 255.9C863.3 256.8 841.1 267.1 840.3 267.1C840 267.1 839.8 266.3 839.9 265.3Z" fill="#C0C0C0"/>
<path d="M822 247C817.5 246 813.4 244.9 812.9 244.7C812.5 244.4 811.3 241.6 810.3 238.6C809 234.2 808.8 231.8 809.4 227.8C810.3 223 810.5 222.6 814.2 221.4C820.4 219.4 828.5 219.6 831.6 221.9C834.2 223.8 834.3 224.2 834.6 235.3C834.8 245 834.6 246.7 833.2 247.8C832.2 248.5 831.2 249 830.9 249C830.6 248.9 826.6 248.1 822 247Z" fill="#C0C0C0"/>
<path d="M803 214.7C800.3 211.7 800.1 210.8 800.8 208C801.3 206.2 802.2 202.8 802.8 200.5C803.9 196.1 808.1 190.2 810.1 190.2C812.1 190.2 818.7 201.4 819.4 205.9C820.5 213 819.5 214.8 813.4 216.6C806.3 218.7 806.5 218.7 803 214.7Z" fill="#C0C0C0"/>
<path d="M618.1 754.6C618 754.6 617.9 754.6 617.9 754.6C617.4 754.9 616.9 756.7 616.9 758.4C616.9 760.4 616 762.4 614.4 764.1L611.8 766.9L613.9 770.4C616.4 774.7 615.9 775.1 606.8 777.5L600.2 779.2L598 786.9L595.8 794.5L599.2 799.5C603 804.8 603 805.3 599.4 813.5L597.8 817.4L600 816.9C601.3 816.6 604.5 815.7 607.2 815C611 813.9 612 814 613 815C614 816 614 816.9 612.2 820.1C610.9 822.2 609.9 824.7 609.9 825.4C609.9 826.1 612.8 829.9 616.2 834.1C617.8 836.1 619.1 837.5 620.2 839.1C624.7 837.3 629.4 836.4 634.3 835.6C642.3 834.3 648.2 832.7 655.8 829.5L666.3 825L671.8 831.2C674.8 834.6 678.9 839.3 681 841.5L684.7 845.6L689.8 840.5L694.9 835.2L703.9 834.5C714.3 833.7 718.8 831.2 718.8 826.2C718.8 821.4 715.5 795.6 714.8 794.7C714.4 794.3 711.2 795.3 707.8 797.1C704.4 798.8 701.2 799.9 700.7 799.5C700.2 799 699.2 795 698.3 790.6C697.5 786.3 696.4 782.4 696 782C695.6 781.6 691.5 781.9 686.9 782.5C679.4 783.4 678.4 783.2 677.2 781.7C676.4 780.5 673.4 779.7 669 779L662 778L658.5 772.2C656.7 769.1 653.8 765.7 652 764.5C648.6 762.1 621.1 754.2 618.1 754.6Z" fill="#C0C0C0"/>
<path d="M564.7 822.9C564.4 822.4 564.4 820.4 564.8 818.4C565.6 814.1 564.7 812.8 556.7 807.7C552 804.6 549.9 803.9 546.9 804.1C544.3 804.3 542.8 803.9 542.3 802.9C541.8 802.1 540.9 795.3 540.2 787.7L539 774L543.9 764.2L548.7 754.4L554.7 752.9L560.7 751.4L560.5 745.4C560 735.6 559.2 733.7 554.7 732.5C550.9 731.4 550.7 731.2 550.4 726.9C550.2 723.3 550.8 721.3 553.5 716.9C555.3 713.9 557.2 711.5 557.7 711.7C558.3 711.8 559.3 713.7 560.1 715.9C561.5 720.2 560.9 719.9 574.7 723.3C578 724.1 584.7 725 589.5 725.4C597.8 726 598.6 725.9 602.7 723.5C605.1 722.1 607.3 720.9 607.6 720.9C607.9 720.9 607.6 722.5 607.1 724.5C606.2 727.6 606.6 729.6 610.2 739.6C615.2 753.8 615.4 757.6 611 762.5C607.9 766.1 607.8 766.2 609.5 769.1C610.5 770.8 611 772.4 610.8 772.8C610.5 773.2 607.8 774.1 604.8 774.8C601.7 775.5 598.7 776.6 598 777.3C597.3 778 595.6 782.2 594.4 786.7L592 794.9L595.6 799.9L599.2 804.9L597.2 810C596.1 812.8 595.3 815.8 595.5 816.6C596.1 820.3 566.8 826.3 564.7 822.9Z" fill="#C0C0C0"/>
<path d="M779.8 929.5C778.7 928.3 778.9 927.6 780.7 925.7C783.5 922.7 783.4 921.7 779.8 916C778.2 913.3 775.8 908.5 774.4 905.3C771.6 898.7 772 898.1 779 898.1C784.6 898.1 786.6 896.4 787.4 891C787.8 888.9 788.9 886.4 789.9 885.4C791.8 883.8 792 883.9 795.3 887C798.4 890 799.5 890.4 807.8 891.3C824.6 893.2 833.6 889 841.5 875.6C843.4 872.3 846.5 868.2 848.4 866.4C850.5 864.5 851.8 862.4 851.8 860.8C851.8 857.6 853.1 856.7 859.8 854.8C877.4 849.8 877 850 876.5 848C875.6 844.4 881 845.8 892.3 852C901.9 857.2 903.4 857.8 906 856.9C908.1 856.1 909.3 856.2 910.3 857.1C911.6 858.2 911.5 858.6 909.5 860.5C906 863.8 905 872.2 907.8 876C908.9 877.6 909.8 879.3 909.8 879.8C909.8 880.3 906.7 885.1 902.8 890.6C899 896 895.8 900.7 895.8 901.1C895.8 901.4 897.6 906.2 899.8 911.8C902 917.4 903.8 922.4 903.8 923C903.8 923.6 901.6 925.2 898.8 926.6C894 929 893.2 929.1 874.4 929.1H855L853.8 924C853 920.8 851.8 918.5 850.4 917.7C849.3 917 842 915.4 834.3 914.1L820.3 911.9L801 921.5C790.4 926.8 781.6 931.1 781.4 931.1C781.2 931.1 780.5 930.4 779.8 929.5Z" fill="#C0C0C0"/>
<path d="M483.9 771.4C473.2 770.2 468.4 770.1 465.4 770.9C462.4 771.7 458.7 771.5 450.2 770.2C444.1 769.3 438.7 768.2 438.3 767.8C438 767.4 438.9 765.5 440.4 763.5C441.9 761.6 442.9 759.4 442.6 758.7C442.3 758 439.1 756.6 435.5 755.6C431.9 754.7 428.9 753.5 428.9 753.2C428.9 751.6 434.9 743.4 438.3 740.1C441.8 736.7 441.9 736.5 441.9 729.1V721.4L445.4 719.8C447.4 718.8 450 718.1 451.3 718.1C455.4 718.1 463 721.3 464.6 723.7C466.5 726.7 467.6 726.7 471.4 723.7C475.6 720.3 478.2 721.7 477.3 726.9C476.4 732.4 482.6 744.8 486.7 745.6C491.9 746.7 497.8 750 499.5 752.8C500.5 754.3 503.2 757.4 505.5 759.6C511.3 765 511.8 767.3 508 770C503.8 773 500.8 773.1 483.9 771.4Z" fill="#F2A741"/>
<path d="M465.8 721C464.4 718.9 454.6 715.1 450.4 715.1C449.3 715.1 446.6 716 444.3 717.2L440.3 719.4L436.4 716.7C434.2 715.3 431.9 714.1 431.3 714.1C430.3 714.1 427.3 712.8 415.2 707.4C413.1 706.5 411.9 705.3 411.9 704.1C411.9 701.2 410.1 700.7 406 702.5L402.2 704.2L395.6 700.6C388.4 696.6 388.4 696.6 390.3 688.6L391.4 683.6L396.9 683.1C402.3 682.6 402.4 682.5 404.8 677.8C407.2 672.8 407.9 672.5 413.9 673.9C418.8 675.1 419.8 674.5 420.5 669.9C421.2 665.7 420.7 666.1 431.7 661.5C434.5 660.3 434.9 659.6 434.7 656.8C434.6 654.9 435.3 652.4 436.2 651C438.4 647.9 438.3 645.9 435.9 641.3C433.1 636.1 433.3 633.3 436.7 631.9C439.3 630.7 446.6 623.6 453.3 615.6C455.2 613.3 457 609.8 457.4 607.6C458.2 602.9 460.6 597.9 462.5 596.8C463.3 596.3 463.9 595.2 463.9 594.2C463.9 593.2 464.5 591.6 465.3 590.5C466.7 588.6 466.8 588.7 467.8 591.6C469.6 596.6 470.4 597.5 475.2 600.1C479 602.1 480.8 604.2 485.5 612L491.2 621.3L489 630.7L486.9 640L489.1 644.4C491.1 648.7 491.1 649.1 489.7 655L488.1 661.1L491.1 663.6C492.7 664.9 494.4 666.1 494.7 666.1C495.1 666.1 496.7 667.2 498.2 668.6C500.5 670.8 500.9 671.9 500.9 676.9C501 680 501.6 683.7 502.4 685.1C503.2 686.4 503.9 689.9 503.9 692.7V697.8L500.2 698.4C494.4 699.4 490.4 699.2 489.2 697.9C487.4 696.2 480.9 711 480.9 716.7C480.9 719.1 480.7 721.1 480.4 721.1C480.1 721.1 478.5 720.4 476.8 719.5C474 718.1 473.7 718.1 470.5 720.6L467.2 723.1L465.8 721Z" fill="#F2A741"/>
<path d="M523.2 770.8C514.7 767.9 513.8 767.4 512.8 764.4C512.3 762.6 510 759.7 507.9 758C505.7 756.3 503.4 753.7 502.7 752.3C501 748.8 494.4 744.4 489.7 743.7C486.3 743.1 485.7 742.5 482.9 737C479.4 729.8 479.2 728.2 481.9 724.8C483.3 723 483.9 720.7 483.9 717.1C483.9 713.7 484.7 710.4 486.4 707.1C489.1 701.8 489.9 701.5 501.9 700.8L506.4 700.6L506.7 695.3C507 690.4 507.2 690.1 509.6 690.1C511.1 690.1 514.1 689.2 516.3 688.2C518.6 687.1 524.4 685.3 529.3 684.1C539.3 681.7 548 676.5 550 671.8C550.6 670.3 551.6 669.1 552.2 669.1C552.8 669.1 557.6 671.5 562.9 674.5C572.5 680 572.6 680.1 578.2 689.3C581.3 694.4 584.7 700.6 585.8 703.2C587.8 707.7 588.1 707.9 597.1 711C602.2 712.8 606.8 714.6 607.3 715.1C607.7 715.5 605.7 717.5 602.8 719.4C597.4 722.8 597.4 722.9 590.4 721.9C581 720.7 573.2 719.3 568.7 718C565.4 717.1 564.8 716.4 562.8 711C561.3 707 560.1 705.1 558.9 705.1C557.9 705.1 555.3 708.1 552.3 712.8C547.7 720.1 547.4 721 547.4 727.4C547.4 734.5 548.3 736 552.5 736.1C555.5 736.1 556.7 737.9 557.4 743.7L558.1 748.7L552.5 750L546.8 751.2L541.1 762.7C537.5 770 534.9 774 533.9 774C533.1 773.9 528.2 772.5 523.2 770.8Z" fill="#F2A741"/>
<path d="M599.8 709.8C590.9 706.5 587.9 704.7 587.9 702.6C587.9 702 584.8 696.3 581 690L574.2 678.6L562.9 672.1C552.5 666.2 551.5 665.8 550.5 667.5C545.7 675.6 539.3 679.7 527 682.6C521.7 683.9 516 685.7 514.4 686.5C509.2 689.2 507.2 688.6 504.9 683.6C503.7 680.9 502.9 677.1 502.9 673.8V668.4L497.4 664.7C491.4 660.7 491.2 660.1 493 652.4C494 648.1 493.9 647.1 492 643.7L489.8 639.8L491.9 630.4L494.1 621L487.8 610.4C482.3 601 481 599.6 477.1 597.8C473.8 596.4 472.3 595 471.2 592.2C468.8 586.5 469.3 582.5 474.2 570.1C478.9 558.3 479.9 556.9 489.3 549.8C492.4 547.4 492.9 546.4 492.9 543C492.9 539.6 493.6 538.2 497.3 534.3C501.5 529.9 501.9 529.7 504.2 531C506.6 532.2 507.2 532 514 527.2C518 524.4 522.3 522.1 523.6 522.1C525.8 522.1 525.9 522.5 525.9 528.4C525.9 533.6 525.3 535.8 522.8 540.4L519.7 546.1L523.3 550.9L526.8 555.7L537.6 557C544.3 557.8 550.3 559.1 553.5 560.5C558.5 562.8 558.6 562.9 558.5 567.1C558.4 571.3 558.6 571.6 563.3 574.3L568.2 577.2L575.5 575L582.9 572.8L587.7 576.8C592 580.4 592.5 581.2 593 586.2C593.3 589.6 594.9 594.4 597.4 599.3L601.3 607.1H607.7C613.9 607.1 614.3 607.2 620.9 612.5C627.1 617.4 628.4 618 636.5 619.4L645.3 621L652.3 628.6L659.3 636.1H668.9H678.6L684.3 631.4L690 626.7L695.7 632.9C701.1 638.7 701.7 639.1 705.9 639.1C709.1 639.1 711.8 640 716.3 642.6C719.6 644.6 723 646.6 723.8 647C724.7 647.5 725.2 648.8 725 650.4C724.4 655.3 728.3 661.8 733.7 665.2C736.5 666.9 738.5 668.8 738.2 669.3C737 671.1 723.9 679.1 722 679.1C721 679.1 719.3 678.2 718.3 677.1C717.3 676 715.9 675.1 715.2 675.1C714.5 675.1 710.4 677.2 706.2 679.8L698.6 684.5L691.2 680.7C683.9 676.9 683.6 676.9 676.3 677.5C668.9 678.2 668.8 678.2 667.7 675.6C667 674.2 665.5 672.8 664.4 672.6C660.2 671.8 644.1 671.2 643.1 671.9C642.5 672.3 640.2 677.4 638 683.2C632.4 698.1 632.4 698.1 627.9 698.1C624.3 698.1 623.6 698.6 617.8 705.5C614.3 709.7 610.7 713 609.9 713C609.1 713 604.5 711.5 599.8 709.8Z" fill="#F2A741"/>
<path d="M718.6 641.6C712.9 638.2 709.8 637.1 706.8 637.1C703.2 637.1 702.2 636.5 697.6 631.5C690.1 623.4 690.1 623.4 683.4 629.1L677.6 634.1H669H660.3L653.6 626.7L646.9 619.3L637.8 617.6C629.4 615.9 628.1 615.3 621.9 610.4C615.3 605.3 614.8 605.1 608.7 605H602.4L598.6 596.8C596.2 591.4 594.9 587.1 594.9 584.4C594.9 580.6 594.4 579.8 589.7 575.6C586.8 573.1 583.7 571.1 582.8 571.1C581.8 571.1 578.3 571.9 574.8 573L568.6 575L564.4 572.5C560.6 570.3 560.2 569.7 560.2 565.9C560.2 559.5 555.1 557 538.1 555C527.9 553.8 527.8 553.8 525.4 550.2C522.3 545.7 522.3 545.3 525.4 539.9C527.4 536.3 527.9 534.2 527.9 527.9V520.2L530.9 519.6C532.5 519.2 536.1 516.9 538.8 514.5C543.4 510.3 544.5 509.9 552.6 508.5C564.6 506.4 563.7 506.8 571.6 499.3C576.8 494.3 579.1 491.3 580 488.2C581.1 484.5 581.1 483.7 579.8 483C575.4 480.3 575.4 480.5 579.2 474.9C581.3 472 582.9 469 582.9 468.4C582.9 467.8 581.7 464.9 580.3 462.1C577.7 456.9 577.7 454.1 580.2 454.1C580.9 454.1 585.9 460.8 591.3 469.1C598.3 479.7 601.7 484.1 603 484.1C604.2 484.1 606.1 482.3 608 479.3C611.9 473.1 612.4 470.8 610.4 467.7C609.1 465.7 608.9 464 609.5 459.5C610.2 453.8 610.2 453.8 606.5 450.7L602.7 447.6L605.1 444.6C606.3 443 609.1 438.1 611.1 433.7C614.6 426 614.7 425.6 613.2 423C610.5 418.4 612 415.9 621.3 410.1C628.8 405.4 630.5 403.7 637.3 394.5C642.2 387.8 645.6 384.1 646.8 384.1C648.7 384.1 659.8 387.9 661.1 389.1C661.6 389.5 661.6 392.1 661.2 395C660.6 399.4 659.5 401.4 653.7 408.7C649.9 413.5 646.8 418.2 646.8 419.4C646.8 420.5 647.5 424.1 648.4 427.3C650 433 650 433.2 647.4 441C646 445.4 644.8 449.8 644.8 450.8C644.8 451.8 643.2 457.4 641.3 463.1C639.4 468.8 637.8 474.4 637.8 475.5C637.8 476.6 639 480.3 640.4 483.6L642.9 489.7L638.8 497.4C636.5 501.6 634.3 505.1 633.8 505.1C633.3 505.1 630.2 508.4 626.8 512.6C620.9 519.9 620.7 520.1 616.2 520.1C613.8 520.1 608.6 519.1 604.9 518C590.9 513.7 588.4 516.9 598.1 526.8C605 533.9 612.4 538 618.1 538.1C624.1 538.1 635.7 532.2 640.1 526.7C642.2 524.1 646.6 520.2 649.9 518L655.8 514V502.6C655.8 489.8 656.3 488.6 662.5 487.5C668.2 486.4 670.9 488.5 672.6 495.1C675.9 508.5 675.7 508.1 678.6 508.1C680.1 508.1 682.8 507.1 684.7 506L688 504L687.3 496.8C686.9 492.8 686.2 488.6 685.8 487.5C685.3 486.3 681.9 483.2 678.2 480.5C672.5 476.4 670.3 475.5 664.4 474.6C658.2 473.7 657.3 473.3 656.7 471.1C655 464.8 655.7 461.6 660.8 453.6C663.6 449.2 665.8 445.2 665.8 444.6C665.8 444 664.7 439.1 663.4 433.6C660.6 422.4 660.9 421.1 667 415.5C672.1 410.7 679.3 405.9 679.6 406.9C679.8 407.5 678.3 412.1 676.4 417.4C674.4 422.6 672.8 427.4 672.8 428C672.8 430.2 691.9 441.1 695.9 441.1C698.2 441.1 700.7 438.5 700.8 436.2C700.8 435.5 697.9 431.6 694.3 427.6C690.7 423.6 687.8 419.6 687.8 418.8C687.8 416.1 689.8 415.7 692.2 418C694.7 420.3 696.9 420.6 699.9 419C702.5 417.7 702.3 415.8 699.2 410.5C697.1 406.9 696.8 405.8 697.8 404.5C700.8 401 705 404.2 702.5 408.2C701.5 409.8 701.6 410.4 702.8 411.4C703.7 412 706.4 414.7 708.8 417.4L713.1 422.2L708.5 426.9C705.9 429.5 703.8 432.1 703.8 432.7C703.8 433.4 705.8 436.1 708.3 438.9C713.1 444.1 713.5 446 711.7 452.2C710.8 455.1 708.9 457.3 703.7 461.3C700 464.2 696.7 467.1 696.4 467.8C695.9 468.9 700.4 476.1 706 483.1C708.7 486.5 708.8 486.5 713 485.4C715.4 484.7 717.6 484.5 718 484.9C718.4 485.3 719.9 488.9 721.3 492.9L723.8 500.1L718.8 510L713.8 519.8L714.9 527.7C715.7 533.1 717 537.3 719.1 541.1C721.8 545.9 722.2 547.8 722.6 556.1C723.1 566.4 723.9 569.1 726.6 569.1C730 569.1 730.8 571.2 730.8 580.2C730.8 589.9 731.5 591 738.3 592.6C743.3 593.8 743.8 594.8 743.8 602.5C743.8 609.4 743.6 610 739.7 615.5L735.5 621.3L737.2 626.5C738.1 629.4 738.8 632.4 738.8 633.2C738.8 635 729 646.1 727.5 646.1C726.8 646.1 722.8 644 718.6 641.6Z" fill="#F2A741"/>
<path d="M381.3 795.6C381 794.8 381.2 792.7 381.8 790.9C383.2 786.9 382.1 785.4 376.6 784.5C369 783.3 368.6 782.7 371.2 777.3C372.5 774.7 374.6 769.8 375.9 766.3C378.8 758.3 385.6 751.5 389.7 752.5C396.5 754.2 397.2 753.9 400.6 747.6C405.9 737.8 404.7 734.2 396.8 736C393.4 736.7 390.5 736.5 384 735.1C379.4 734.1 375.4 732.9 375 732.4C374.6 731.9 373.4 729.6 372.4 727.2L370.5 722.9L373 721C377.3 717.6 379.5 717.6 383.6 720.8C386.8 723.4 388.6 723.9 395.5 724.5C404.9 725.4 404.7 725.5 407.9 715.8C409.1 712.1 410.4 709.1 410.7 709.1C412.8 709.1 433.8 718.3 436.3 720.3C438.7 722.2 439.3 723.5 439.7 728.2C440.1 733.8 440.1 733.8 435.1 739.4C430 745 425.9 751.7 425.9 754.4C425.9 755.3 428.3 756.5 432.4 757.6C436 758.6 438.9 759.6 438.9 759.8C438.9 760.1 437.9 762 436.8 764.1C434.2 768.7 433.2 768.7 420.1 763.9C410.8 760.5 408.5 760.8 405.4 765.4C403.9 767.8 403.9 768.4 406.3 775.7C408.9 784 408.4 785.5 404 783.1C401.1 781.5 393.3 781.8 391.5 783.6C390.7 784.4 389.7 787.1 389.3 789.6C389 792.1 388 794.8 387.2 795.6C385.3 797.5 382 797.5 381.3 795.6Z" fill="#F2A741"/>
<path d="M350.6 787.9C347.3 785.2 346.5 784.9 344.3 785.9C341.7 787.1 334.7 787.5 333.7 786.5C333.4 786.2 333.6 784.4 334.2 782.5C334.9 780.3 334.9 778.4 334.3 776.9C333.6 775.3 333.8 773.2 335.1 769.3C337.7 761.3 337.7 761.1 332 761.1H327.1L327.6 755.8C328.1 751.1 327.6 749.3 323.5 739.7C319.8 730.9 318.9 727.8 318.9 723C318.9 717.6 319.3 716.4 323.6 710C326.9 705 328.5 701.5 328.9 698.3L329.4 693.6L336.9 691.3C345.9 688.5 346.7 687.9 345 684.7C343 681.1 343.9 680.1 350.6 677.5L356.8 675.2L359.3 678.5C361.3 681.2 362.7 681.9 366.8 682.5C372.1 683.2 374.3 685.2 377.9 692.4C378.7 694 380.5 695.7 381.9 696.2C383.3 696.8 385.3 698 386.4 699C390.2 702.4 401.9 708.3 403.9 707.8C406.4 707.1 406.4 708.7 404 715.6L402.2 720.6L396.5 720.9C390.5 721.2 386.4 719.5 382.4 715.1C381.4 714 380 713.1 379.2 713.1C376.7 713.1 366.9 720.3 366.9 722.1C366.9 725.2 372.1 736 373.8 736.5C380.6 738.5 390.2 740.1 394.1 739.9C396.7 739.8 399.2 740 399.5 740.3C399.9 740.7 399 743 397.5 745.5C395 749.8 394.8 749.9 391.9 748.9C390.2 748.3 387.9 748.1 386.6 748.4C384 749.1 373.9 758.4 373.9 760.1C373.9 760.8 371.9 766.2 369.3 772.1C365.7 780.7 364.3 783 362.6 783.3C361.3 783.4 359.6 785 358.4 787.3C357.3 789.4 356 791.1 355.4 791C354.9 791 352.7 789.6 350.6 787.9Z" fill="#C0C0C0"/>
<path d="M151.4 829.5C144.8 828.8 138.6 828.4 137.7 828.7C136.7 829 135.3 828.8 134.4 828.3C133.2 827.6 133.7 826.7 137.3 823.1L141.8 818.8L139.8 814.9C137.6 810.5 137.3 810.8 146.1 809.1C149.3 808.4 152.1 807.6 152.3 807.2C152.5 806.9 152.3 804.3 151.8 801.6C150.9 797 151.1 796.5 154.4 791.6C156.3 788.8 157.9 786.2 157.9 785.8C157.9 785.4 155.6 785.1 152.8 785.1H147.6L148.3 777.1C148.7 772 148.5 767.6 147.7 764.7C147.1 762.2 146.8 759.8 147.2 759.4C147.7 759 151.5 758.7 155.7 758.8C162.3 758.9 163.6 759.3 165.1 761.1C167.3 763.8 167.4 765.7 165.4 767.7C163.8 769.3 163.6 772.4 164.8 775.6C165.3 776.8 164.9 779.6 163.8 782.9C161.6 789.3 162 790.3 168.3 795C170.8 796.9 173.1 799.1 173.3 800C173.6 800.9 174.1 805.6 174.4 810.6L175.1 819.7L170.9 821.4C166.7 823 166.6 823 167.3 827C168 831.7 169.5 831.5 151.4 829.5Z" fill="#F2A741"/>
<path d="M373.6 824.3C368.8 821.3 367.5 820.9 366.1 821.9C360.9 825.6 360.1 825.6 356 821.6C352.8 818.6 351.9 816.8 351.4 812.8C350.2 804.7 344.8 801.2 337.5 804C334.7 805.1 334.9 805.2 327.6 796.6L325.1 793.6L316.8 795.3C312.2 796.3 307.9 797.1 307.2 797.1C306.5 797.1 305.5 795.3 304.9 793.2C304.4 791 303.1 788.3 302.1 787C300.5 785.1 300 785 298.1 786C296.9 786.6 295.5 786.9 295 786.6C294.5 786.3 293.4 781.9 292.4 776.8C291.4 771.7 290.2 766.8 289.8 765.9C289.3 764.9 286.9 763.3 284.4 762.2C280 760.2 279.9 760.1 279.9 755.3C279.9 748.8 278.9 748 271.4 748.8L265.2 749.3L264.6 746.1C263.6 741.4 263.5 741.5 267.9 740.2C270.3 739.5 272.8 737.8 274.2 735.9C275.6 734 279.4 731.5 284.4 729.1C291.3 725.8 293.5 724.2 300.7 716.3C305.2 711.3 308.9 706.4 308.9 705.4C308.9 704.3 310.3 705.6 312.4 708.8C315.6 713.5 315.9 714.6 316 721.3C316 727.6 316.6 730.1 320.8 740.5C325.2 751.3 325.5 752.7 324.7 756.9C323.5 763.4 324.1 764.4 328.9 763.8C331.1 763.5 333.1 763.6 333.4 764.1C334.2 765.3 332.1 770.2 330.2 771.6C328.7 772.7 328.8 773.1 330.7 776.2C332.6 779.4 332.7 779.9 331.4 782.5C328.9 787.2 329.5 788.7 333.7 789.4C339.4 790.4 342.7 790.2 344.9 788.8C346.6 787.8 347.4 788.1 350.8 791.5C355.5 796 357 795.8 359.9 790.1C361 787.9 362.7 786.1 363.6 786.1C367.6 786.1 377.9 788.5 377.9 789.5C377.9 790.1 377.2 792.7 376.2 795.3L374.5 800L380.1 808.3C388.6 821.2 388.4 820.4 384.8 824.5C383.1 826.5 381.2 828.1 380.6 828C379.9 828 376.8 826.4 373.6 824.3Z" fill="#F2A741"/>
<path d="M208.1 755.4C207.6 754.4 206.8 752 206.4 750.1C206 748.1 204.1 742.4 202.1 737.3C199 729.2 198.2 727.9 195.8 727.4C194.1 727.1 192.4 725.6 191 723C189.4 720.1 188 719 185.6 718.5L182.3 717.9L182.4 709.2C182.4 703.6 182 699.8 181.2 698.9C180.5 698.1 176.5 696.6 172.3 695.5C165.4 693.8 164.5 693.3 163.1 690.4C161.9 687.8 161.8 686.6 162.7 684.8C163.3 683.6 164 680.8 164.1 678.6C164.4 674.7 164.6 674.5 171.9 670.8C176 668.8 179.9 667.1 180.5 667.1C181 667.1 183.3 668.9 185.5 671.2C187.6 673.4 192.5 678 196.2 681.3C202.4 686.8 203.8 687.6 211.8 689.7C218.6 691.5 221.5 692.9 224.5 695.5C226.6 697.5 230.3 699.8 232.8 700.6C235.4 701.5 238 702.6 238.8 702.9C242.7 704.9 258.3 739.1 255.9 740.6C254.6 741.4 234.3 744.8 225.7 745.7C218.3 746.4 216.2 747.9 214.4 753.4C213.2 757.1 209.6 758.2 208.1 755.4Z" fill="#F2A741"/>
<path d="M257 731.9C255 725.4 247.4 709.8 244.6 706.3C243.8 705.3 244.2 704.8 245.9 704.4C248 703.8 248.1 703.5 247.4 696.8C246.6 688.3 246.8 688.1 256.5 688.1C263.2 688.1 263.8 688.3 268.9 692.1C271.9 694.3 274.5 696.1 274.7 696.1C274.9 696.1 277.4 694.1 280.3 691.6L285.6 687.1L287.8 690.1C290.3 693.6 291.9 693.8 294.4 691.1C296.7 688.5 298.1 688.5 301.1 691.4C302.7 692.9 304 695.7 304.9 699.8L306.2 706L298.8 714.3C290 724.1 291 723.3 282.9 726.8C278.9 728.5 274.8 731.2 272.3 733.8C269.7 736.4 267.2 738.1 265.8 738.1C264.5 738.1 262.5 738.3 261.4 738.6C259.6 739.1 259 738.3 257 731.9Z" fill="#F2A741"/>
<path d="M382.4 693.3C381.8 692.9 379.8 690.1 378 687.1C376.2 684 374.6 681.5 374.5 681.3C374.3 681.2 371.8 680.6 368.8 680.1C364.6 679.3 362.8 678.3 360.6 675.8C358.1 672.9 354.5 666.1 355.1 665.5C355.3 665.4 357.1 664.6 359.2 663.7C361.2 662.9 362.9 661.6 362.9 660.8C362.9 660.1 364.7 655.7 366.9 651.2C369.4 646 370.9 641.5 370.9 639.1C370.9 633.1 372 629.3 374.4 626.8C375.6 625.6 377.3 623.2 378.1 621.6C379.5 619 379.5 618.2 378.2 614.6C376.9 610.7 376.9 610.5 379.1 608.7C382.9 605.7 389.6 599.3 390.4 598.1C390.7 597.5 388.5 594.4 385.4 591.2C379.9 585.3 379.8 585.2 380.1 579.9C380.4 574.8 380.6 574.6 383.3 574.2C384.9 574.1 387.7 574.2 389.6 574.5C392.4 575.1 393.4 576 395.2 579.9C397.4 584.4 397.6 584.6 405.7 587L413.9 589.4L423.9 587.6C435 585.5 436.4 585.7 450.2 590.7C454.4 592.2 457.9 594.1 457.9 594.8C457.9 595.5 457 597.8 455.9 599.8C454.8 601.9 453.9 604.7 453.9 606.2C453.9 610.8 439.4 627.1 433.4 629.1L429.7 630.3L430.2 635C430.5 637.6 431.5 641.3 432.5 643.3C434.1 646.7 434.1 647.1 432.6 649.5C431.7 650.9 430.9 653.3 430.9 655C430.9 657.7 430.4 658.1 425.2 660C418.8 662.4 416.9 664.2 416.9 667.9C416.9 670.3 416.8 670.3 410.9 669.7L405 669L402.5 674L399.9 679L394.2 679.3L388.4 679.6L386.9 686.5C385.4 693.3 384.4 694.8 382.4 693.3Z" fill="#C0C0C0"/>
<path d="M340.7 675.8C342.4 674 342.9 672.2 342.9 668.3C342.9 662 342.8 662 331.1 665.8C322.9 668.5 322.7 668.5 321.3 666.6C319.4 664 319.5 662.1 322 655.6C323.4 651.7 324.6 650.1 325.9 650.1C328.4 650.1 329.6 648.3 330.4 643.1C331.4 637 331.8 636.6 336.3 636.6C340.1 636.6 340.4 636.3 344.9 629.1C350.4 620.5 349.9 620.6 360.9 625.9L368.4 629.6L368.1 636.6C367.9 641 367.2 644.7 366.1 646.6C365.1 648.2 363.3 652 362.1 655.1C360.2 659.7 359.2 660.8 355.8 662.3C352.2 663.8 351.8 664.3 352.4 666.3C354.3 672.2 353.8 673.3 347.4 675.7C339.6 678.8 337.9 678.8 340.7 675.8Z" fill="#F2A741"/>
<path d="M317.5 654.9C317.2 654.2 315.8 646.6 314.3 638.2C312.7 629.7 310.9 622.2 310.3 621.6C309 620.3 293.3 616.5 291 617C290.2 617.1 288.3 618.2 286.8 619.3C285.2 620.5 283.8 621.2 283.6 621C283.4 620.8 282.9 618.5 282.6 616C282.1 611.9 282.3 611.2 285.6 607.8C287.7 605.5 289.7 604.2 290.8 604.5C291.7 604.7 293.5 605.2 294.7 605.6C296.4 606.1 298.2 605.5 301 603.5C303.1 602 304.9 600.4 304.9 600C304.9 599.5 302.5 597.2 299.5 594.9C296.5 592.5 294 590.1 294 589.4C293.9 588.8 296.1 586.9 298.7 585.2C303 582.4 304.4 582.1 310.7 582.1H317.9V575.7C317.9 570.3 318.3 569.1 320.4 567.1C321.8 565.8 322.9 564.1 322.9 563.4C322.9 562.6 323.9 560.1 325 557.8C326.7 554.6 326.9 553.3 326 551.9C325 550.3 325.7 549.7 331.9 546.6C335.7 544.7 339.3 543.1 339.8 543.1C340.3 543.1 341.5 544.3 342.4 545.8C344.1 548.3 344.1 548.8 342.5 555C341.2 559.8 339.8 562.6 337.1 565.3L333.5 569.1L334.6 574.3C336.6 584 339 591.1 340.3 591.1C341 591.1 343.9 589 346.8 586.6C349.7 584.1 352.1 582.1 352.2 582.1C352.3 582.1 355.8 583 359.9 584.1C364 585.2 369.7 586.1 372.4 586.1C377.2 586.2 377.6 586.4 382.4 591.8L387.4 597.4L380.4 603.8L373.5 610.2L375.1 614.6C376.7 618.9 376.7 618.9 373.7 623C372.1 625.2 370.5 627.1 370.3 627.1C370 627.1 367.7 626 365 624.6C356.3 620.2 349.7 618 348.3 619.2C347.6 619.7 345.2 623.3 343 627.1C338.9 633.9 338.8 634 334.2 634.3L329.4 634.6L328.1 640.8C327 645.7 326.3 647.1 324.9 647.1C322.7 647.1 321.3 648.7 320.4 652.3C319.6 655.5 318.1 656.8 317.5 654.9Z" fill="#F2A741"/>
<path d="M282.6 643.752C282.4 643.252 281.1 639.452 279.9 635.152C278.5 630.352 277 627.252 276 627.052C275.1 626.752 271.8 626.052 268.6 625.452L262.8 624.252L263.1 618.652L263.4 613.152L267.9 611.852C271.7 610.652 272.7 610.752 274.6 611.952C275.8 612.752 277.5 613.452 278.2 613.452C279.2 613.452 279.9 615.252 280.3 619.452C281.1 626.452 282 626.752 287.9 622.552L291.9 619.652L300.1 621.552C304.6 622.652 308.5 623.652 308.6 623.852C308.8 623.952 309.6 627.852 310.4 632.452C311.7 639.852 311.7 641.052 310.4 642.352C309.1 643.652 308.6 643.552 306.1 641.652C304.5 640.552 302.6 639.452 301.8 639.252C300.6 639.052 289.6 642.052 284.5 644.052C283.8 644.352 282.9 644.152 282.6 643.752Z" fill="#F2A741"/>
<path d="M157.301 666.8C149.901 658.8 148.201 656.6 147.501 653.8C147.001 651.5 147.201 651 149.501 650.5C152.001 649.8 152.001 649.7 151.801 642C151.601 637.7 151.701 634 152.001 633.8C159.201 627.9 162.601 626.1 166.101 626.1C169.201 626.1 170.201 626.5 171.101 628.6C172.401 631.4 172.501 631.5 178.501 629.9C182.701 628.9 183.301 629 185.201 631L187.401 633.2L184.601 635.2L181.801 637.3L182.501 649.1L183.201 660.9L173.101 666C167.501 668.8 162.601 671.1 162.101 671.1C161.701 671.1 159.501 669.2 157.301 666.8Z" fill="#F6A43A"/>
<path d="M313.9 706C311.6 702.7 309.4 700.3 308.9 700.6C308.1 701.1 305.9 695.2 305.9 692.4C305.9 691.1 299.6 686.1 297.9 686.1C297.2 686.1 295.5 687 294.1 688.1L291.4 690.2L289.2 687.4C287.9 685.8 286.9 684.1 286.9 683.5C286.9 682.9 285.8 681.4 284.6 680.2C283.3 679 281.7 676.2 281 674C280 670.5 279.5 670.1 276.6 670.1C272.9 670 271.9 669.5 269.6 665.9C268.2 663.6 267.1 663.1 262.7 662.9C259 662.7 257.3 662.1 257.1 661.1C256.9 660 257.7 659.5 259.6 659.5C261.2 659.5 264.6 659.4 267.2 659.3L272.1 659.1L271.7 654.9L271.4 650.7L276.9 648.9C279.9 647.9 286.5 645.8 291.6 644.2L300.7 641.3L304.3 643.7C306.7 645.4 308.6 645.9 310.3 645.5C312.9 644.9 313.1 645.3 315.5 658.5C316.3 662.9 319.5 670.7 320.8 671.5C321.3 671.8 325.6 670.7 330.4 669.1C335.2 667.4 339.6 666.4 340 666.6C341.8 667.7 340.8 671.1 337.9 674.4C334.2 678.6 334.2 679.7 337.4 680.5C340.6 681.3 343.2 686.1 340.9 686.9C340.1 687.2 336.7 688.4 333.4 689.5L327.4 691.6L326.9 696.2C326.5 699.2 325.1 702.8 322.6 706.5C320.6 709.5 318.7 712.1 318.4 712.1C318.2 712.1 316.1 709.4 313.9 706Z" fill="#F6A43A" fill-opacity="0.95"/>
<path d="M237.6 699.6C234.9 698.8 230.9 697 228.7 695.5L224.6 692.9L230.4 687.7L236.3 682.5L235 676.5C234.3 673.2 233.9 668.8 234.1 666.6L234.4 662.6L239.8 662.3C244.7 662 245.2 661.7 246.2 659C246.8 657.4 247.8 656.1 248.4 656.1C250.7 656.1 253.8 659.2 254.1 661.8C254.3 663.3 255.1 664.6 255.9 664.7C267 666.2 266.9 666.2 268.4 669.1C269.7 671.5 270.6 672.1 273.5 672.1C276.6 672.1 277.2 672.5 278.6 675.8C279.4 677.9 281.1 680.6 282.2 681.9L284.4 684.2L279.7 688.7L274.9 693.2L269.6 689.1C264.6 685.4 263.8 685.1 257.8 685.1C254.3 685.1 249.7 685.6 247.5 686.2L243.7 687.2L244.3 694.1C245.1 701.9 245.4 701.7 237.6 699.6Z" fill="#F6A43A" fill-opacity="0.95"/>
<path d="M213.1 687.3C204 684.7 203.4 684.3 194.4 676.1C189.3 671.4 184.8 666.9 184.5 666.2C184.1 665.4 184.6 664.3 185.4 663.7C186.7 662.7 186.9 660.5 186.7 650.6L186.4 638.7L189.1 637.7C193 636.3 204 643.6 208.5 650.7C212.6 657 213.1 657.4 215.5 655.6C217.1 654.5 218.1 654.6 222.9 656.7C231.2 660.4 231.6 661.1 232.2 672.4L232.6 682.1L228 686.1C225.5 688.3 223.2 690 222.9 690C222.6 690 218.2 688.7 213.1 687.3Z" fill="#F6A43A" fill-opacity="0.95"/>
<path d="M252.8 655.1C249.9 652.7 249.7 652.2 250.6 649.4C251.3 647.6 251.3 645.8 250.8 645C249.3 642.6 249.8 641.6 253.2 640.1C256.1 638.7 256.4 638.1 256.7 633.4C257 628.3 257.1 628.1 260.5 627.5C262.4 627.1 266.4 627.5 269.6 628.3L275.4 629.7L277.2 635.1C278.1 638.1 279.2 641.3 279.5 642.3C279.9 643.6 278.7 644.7 274.2 646.8C268.7 649.4 268.4 649.8 268.7 652.8C269 656.5 268.6 656.7 261.2 657.3C256.7 657.7 255.6 657.4 252.8 655.1Z" fill="#F6A43A" fill-opacity="0.95"/>
<path d="M283.5 581.1L276.6 576.5L272.9 578.7C267.4 581.8 262.1 581.4 256 577.5C251.8 574.8 251 573.9 251.3 571.8C251.6 570 250.5 568.1 246.4 563.9C241.3 558.6 241 558.4 238.6 559.7C236 561 230.8 560.6 228 558.9C225.9 557.5 231.9 552.5 240.9 547.9C245 545.7 249.8 543.3 251.4 542.4C253.5 541.3 257 540.8 262.7 540.8C273 540.8 277.6 542.8 282.2 549.5C289 559.3 291.2 561.1 299.8 563.7C307.4 565.9 308 566 309.7 564.4C312 562.4 316.9 562.2 316.9 564.1C316.9 564.9 316.2 566.1 315.4 566.8C314.4 567.6 313.9 569.8 313.9 573.3V578.6L308.3 578.1C303.6 577.7 302.1 578 299 580C289.4 586.4 291.1 586.3 283.5 581.1Z" fill="#F2A741"/>
<path d="M228.101 584.7C220.501 575 215.401 570.1 213.201 570.1C212.101 570.1 210.601 569.4 209.901 568.6C208.901 567.3 209.001 566.7 210.501 565C212.001 563.3 212.101 562.6 211.101 561C209.301 558.1 210.401 557.1 215.301 557.1C218.201 557.1 220.501 557.8 222.901 559.5C227.301 562.8 236.201 564.9 238.401 563.1C239.701 562 240.301 562.1 242.101 563.7C247.101 568 248.801 570.5 248.201 573.2C247.801 575.5 248.301 576.2 251.801 578.1C256.401 580.7 257.001 582.1 253.701 582.1C252.501 582.1 250.501 583 249.301 584.2C247.501 585.8 246.701 586 245.101 585.2C241.301 583.1 238.101 583.8 236.401 587C235.601 588.6 234.501 590.2 234.001 590.5C233.501 590.8 230.801 588.2 228.101 584.7Z" fill="#F2A741"/>
<path d="M162.7 593.209C162.5 592.909 162.9 591.309 163.6 589.609C164.8 586.709 164.6 585.909 161.4 578.909C158.5 572.509 158 570.709 158.6 566.709C159.3 561.209 156.8 554.909 154 554.909C153.1 554.909 151.3 553.309 150.1 551.409L148 547.909L151.3 541.909C154 537.009 155.2 535.709 158.1 534.909C163.8 533.309 165.8 533.709 168.4 537.009C170.6 539.809 171.9 540.309 180.6 542.009C193.1 544.409 200 549.309 193.1 550.909C191.3 551.309 190.3 552.909 188.5 558.309C186.4 564.309 186.3 565.709 187.3 569.109C187.9 571.209 189.7 574.109 191.3 575.409C194.6 578.109 194.7 579.009 192.2 584.409C190.4 588.409 190.2 588.509 183 589.809C178.9 590.509 172.8 591.709 169.4 592.409C166 593.109 163 593.409 162.7 593.209ZM175.1 570.009L181.6 568.209L181.9 562.809C182.3 554.909 181.2 553.909 172.6 554.709L165.6 555.409L165.9 562.409C166.2 569.809 166.6 571.909 167.8 571.909C168.3 571.909 171.5 571.009 175.1 570.009Z" fill="#F2A741"/>
<path d="M187.001 628.8C183.901 625.7 183.801 625.7 179.201 626.9C175.901 627.8 174.301 627.9 174.101 627.1C173.301 624.8 170.601 623.1 167.601 623.1C163.501 623 163.001 622.7 157.501 615.6C152.501 609.1 152.201 608.5 154.401 607.7C155.201 607.4 157.001 604.9 158.401 602.1C160.001 598.9 161.701 596.9 163.201 596.6C168.501 595.3 186.601 592.1 188.501 592.1C190.601 592.1 198.701 601.4 204.301 610.3L207.201 615.1L199.801 622.9C195.701 627.3 191.901 631 191.201 631.4C190.601 631.7 188.701 630.5 187.001 628.8Z" fill="#F2A741"/>
<path d="M193.8 543.7C191.9 542 188.5 540.9 181.7 539.7C173 538.1 172.1 537.7 169.5 534.4C166.8 531 166.5 530.9 162.2 531.6C159.7 531.9 157.1 532.4 156.5 532.7C155.8 532.9 153.2 530.4 150.6 527.1L145.9 521.1H139.2C135.4 521 131.9 520.7 131.3 520.3C129.8 519.3 120.9 504.9 120.9 503.5C120.9 502.8 122.3 501.7 123.9 501.1C127.6 499.5 128.4 498.1 129.4 491.6C130.6 483.1 133.1 480.8 136.1 485.3C137.2 487 139.9 488 147.5 489.6C152.9 490.8 158.8 492.4 160.6 493.1C163.4 494.3 164.4 494.2 170.5 491.6L177.2 488.7L183 494.9C188 500.3 189.1 501 190.8 500.1C193.8 498.5 195.5 498.8 200.6 502.1C204.1 504.3 206.5 505.1 210 505.1C214.1 505.1 214.8 505.4 215.3 507.5C216.2 511.1 214.4 514.7 209.1 519.9C203.2 525.6 199.7 533.9 201.8 537.2C202.9 539 202.7 539.7 200.4 542.6C199 544.5 197.5 546.1 197.1 546C196.7 546 195.2 545 193.8 543.7Z" fill="#F2A741"/>
<path d="M199.401 598.9C192.001 589.6 192.301 590.8 195.301 584.1L197.901 578.1L194.301 574.8C189.101 570.1 188.501 567.8 190.501 560.4C191.401 556.9 192.501 554.1 192.801 554.1C193.101 554.1 194.701 555.7 196.301 557.7C199.001 561.1 199.401 561.2 203.401 560.6C208.501 559.9 210.001 561.2 207.301 564.2C205.601 566 205.601 566.4 207.001 568.9C207.801 570.4 210.001 572.1 211.801 572.7C216.301 574.1 231.301 591 229.601 592.7C228.601 593.7 205.601 604.1 204.501 604C203.901 604 201.601 601.7 199.401 598.9Z" fill="#F2A741"/>
<path d="M198.5 556.1C196.3 553.7 197 551 201.4 545.6C205.9 539.9 206.1 539.4 204.8 536.9C202.9 533.4 205.5 527.3 211.5 521.3C218.2 514.7 220.4 514.6 225.7 520.3L229.7 524.5L232.5 522.6C235 520.9 235.3 520.9 236.5 522.5C237.7 524.2 239.9 536.8 239.9 542.5C239.9 545.1 239.4 546 237.6 546.4C236.4 546.7 233 549.1 230 551.6C225.8 555.2 224.1 556.1 222.5 555.5C218.9 554.3 206.8 555.1 205.2 556.6C203.2 558.6 200.5 558.4 198.5 556.1Z" fill="#F2A741"/>
<path d="M200.4 497.2C197.4 495.3 195.5 494.8 192.9 495.2C189.7 495.7 188.9 495.2 183.7 490L177.9 484.3L173.7 486C171.3 486.9 168 488.2 166.3 488.9C163.7 489.9 162.6 489.9 159.8 488.5C157.9 487.7 153 486.4 148.9 485.7C142.9 484.7 140.7 483.9 138.2 481.5L135 478.4L141.6 471L148.2 463.7L147 459.8C146.4 457.8 145.9 454.9 145.9 453.5C145.9 451.3 146.4 450.9 149.7 450.5C151.7 450.3 154.8 449.5 156.5 448.7C159.3 447.6 159.9 447.6 161.8 449.5C164.5 451.9 171.4 453.2 177.1 452.2C181.9 451.4 183.8 453.3 183.9 459C183.9 462.7 184 462.8 187.9 462.8H191.9L196 471.5C201.2 482.8 201.5 484.2 199.4 487.5C197.7 490 197.7 490.2 199.6 491.7C200.8 492.6 202.4 493.7 203.4 494.3C204.4 494.9 205 496.2 204.8 497.5L204.4 499.6L200.4 497.2Z" fill="#F2A741"/>
<path d="M299 559.4C292.8 557.4 292.2 556.9 287.2 549.8C282.9 543.7 280.9 541.8 276.2 539.4C270.7 536.6 270.1 536.5 260.9 537.2C254.2 537.7 250.5 538.4 248.1 539.8C246.2 540.9 244.4 541.6 244.2 541.4C243.9 541.1 243.1 536.6 242.4 531.2C241.3 523.8 240.5 521 238.8 519.1C236.3 516.5 234.8 516.2 231.8 518C230 519.1 229.4 518.9 226.7 515.4C225 513.3 222.5 511.2 221.2 510.7C219.4 510 218.9 509.1 218.9 506.5C218.9 502.1 217.4 500.8 212.2 500.8C208 500.8 207.9 500.7 207.9 497.5C207.9 495.1 207.1 493.6 204.7 491.6C201.5 489 201.4 488.9 203.4 486.8C204.4 485.6 208 483 211.4 481.1C219.7 476.1 220.9 474.9 220.9 471.7C220.9 469.6 222.3 467.7 227.2 463.4C230.7 460.4 234.7 457.4 236 456.9C237.6 456.3 242.3 456.3 247.9 456.7C257 457.5 257.4 457.6 260.6 461.1L263.9 464.7L260.9 472.8C259.3 477.3 257.9 481.5 257.9 482.1C257.9 483.8 273.1 499.8 274.7 499.8C275.4 499.8 276.4 500.9 276.9 502.2C277.5 503.9 280.3 505.9 285.6 508.6C290.7 511.2 294.5 513.9 296.6 516.5L299.8 520.5L304.9 519.5C310.6 518.4 311.9 519.1 311.9 523.5C311.9 526.2 315.3 527.3 320.8 526.4C324.4 525.8 324.8 526 325.9 528.9C326.6 530.5 328.3 532.6 329.6 533.5C331.9 535 332.5 538 331.3 541.2C331 542 328 543.9 324.8 545.4C318.7 548.1 317.6 550.1 320.6 552.3C322 553.3 322.2 554.1 321.3 556.4C320.4 559 320 559.2 316.1 559C313.5 558.8 311.1 559.2 309.7 560.2C307 562.1 307 562.1 299 559.4Z" fill="#F2A741"/>
<path d="M225.1 654.8C218.9 651.8 216.5 651.1 215.7 651.9C213.8 653.7 213.3 653.4 210.4 648.5C208.6 645.4 205.6 642.5 200.9 639.4L193.9 634.8L197.7 630.7C199.8 628.4 203 624.8 204.9 622.7C210 617.1 211.2 616.7 217 618.6L221.9 620.2V627.2C221.9 633.1 222.4 634.9 225 639.6C226.7 642.6 228.4 645.3 228.9 645.5C229.3 645.8 232.9 644.4 236.8 642.5C240.8 640.6 244.2 639.1 244.4 639.1C244.6 639.1 245.7 640.9 246.8 643.1L248.9 647.1L245.9 653.1L242.9 659.1L238.1 659C234.7 658.9 231.1 657.8 225.1 654.8Z" fill="#F2A741"/>
<path d="M226.9 637.3C225.3 634.1 224.3 630.2 223.9 625.1L223.4 617.7L217.3 615.9C211.2 614.1 207.1 610.5 208.2 607.7C208.5 607.1 215.1 603.7 222.9 600.1C234 595 237.4 593 238.5 590.8C240.2 587.7 240 587.7 245 589.2C248.5 590.2 249 590.1 251.7 587.9C254.2 585.8 256.1 585.3 263.1 584.8C267.8 584.5 272.5 583.7 273.7 582.9C275.7 581.7 276.4 581.9 280.5 584.1C283 585.5 288.6 589.5 293 593C300.8 599.1 300.9 599.4 299.2 601.3C297.5 603.1 294 603.2 289.5 601.5C288.7 601.2 286 603.2 283.4 606L278.7 611L276 609C273.5 607.1 273.2 607.1 266.9 608.8L260.4 610.6L260.1 617.4C259.8 623.9 259.7 624.2 256.9 625.2C254.1 626.2 253.9 626.6 253.9 631.5C253.9 636.1 253.6 636.9 251.3 638.1C249 639.4 248.6 639.3 247.4 637.8C245.8 635.5 245.1 635.6 237.7 639.1C234.3 640.7 230.9 642.1 230.4 642.1C229.8 642.1 228.2 639.9 226.9 637.3Z" fill="#F2A741"/>
</svg>
