<svg width="119" height="80" viewBox="0 0 119 80" fill="none" xmlns="http://www.w3.org/2000/svg">
<path d="M84.7469 0H0.00125122V26.2852H84.7469V0Z" fill="#F9B543"/>
<path d="M72.4318 26.2842H0.00106812V52.7246H72.4318V26.2842Z" fill="#EF8036"/>
<path d="M119 52.7241H0V79.1918H119V52.7241Z" fill="#5A004B"/>
<path d="M79.9981 4.52769H68.1385L66.6387 7.47265H72.8015C73.9107 7.47265 74.4859 7.32818 74.945 7.03444L75.0001 7.08206L65.5986 21.3114L65.6467 21.4344H78.5267L80.0671 18.4895H72.7266C71.7341 18.4895 71.2542 18.5858 70.7683 18.9213L70.6998 18.8731L80.0468 4.64487L79.9981 4.52769ZM54.3683 15.0592L54.3479 15.0314C54.5395 14.7917 54.8065 14.4011 55.0665 13.7778L56.1827 11.1212C56.5181 10.2999 56.7102 9.66959 56.7578 9.28596H56.8536C56.8809 9.66959 57.073 10.2999 57.4154 11.1212L58.5246 13.7778C58.8125 14.4011 59.0591 14.7917 59.2501 15.0314L59.2229 15.0592C58.9831 15.0111 58.6204 14.9833 57.9906 14.9833H55.601C54.9707 14.9838 54.6085 15.0111 54.3683 15.0592ZM48.3772 21.4339H51.808L53.5951 17.421H59.9971L61.7847 21.4339H65.215L57.0532 4.18579H56.5465L48.3772 21.4339ZM37.8254 7.18425C37.9693 7.25274 38.14 7.28003 38.4551 7.28003H40.7216C42.2005 7.28003 42.9678 8.15003 42.9678 9.40314C42.9678 10.7108 42.146 11.4845 40.7216 11.4845H38.4551C38.14 11.4845 37.9688 11.5054 37.8254 11.5808L37.7772 11.5327C37.8254 11.4096 37.873 11.1908 37.873 10.8751V7.90337C37.873 7.59571 37.8254 7.34905 37.7772 7.23241L37.8254 7.18425ZM40.7216 4.52769H34.7782V21.4344H37.873V14.9838C37.873 14.6007 37.8254 14.285 37.7291 14.0389L37.7767 13.9907C37.8997 14.0662 38.0164 14.0934 38.2561 14.1132C38.3792 14.1416 38.5022 14.1416 38.6189 14.1416L44.2268 21.4339H48.1161L43.1658 15.2502C42.536 14.4771 42.0288 14.0656 41.3509 13.8741V13.7778C41.5702 13.8468 41.7891 13.8741 42.0491 13.8741C44.0829 13.8741 46.1578 11.9907 46.1578 9.30736C46.1584 6.2875 44.1043 4.52769 40.7216 4.52769ZM33.066 4.52769H29.4164L25.8417 13.2443C25.3623 14.4016 25.1911 15.155 25.0477 16.0448H24.9519C24.8288 15.155 24.6367 14.4016 24.1782 13.2443L20.6035 4.52769H16.9544L24.7534 21.6255H25.267L33.066 4.52769ZM15.8928 4.52769H5.88885V21.4344H15.9886V18.6067H9.56631C9.22387 18.6067 9.07994 18.6543 8.93654 18.7297L8.88839 18.6816C8.93654 18.5585 8.98416 18.3183 8.98416 18.0031V14.3808C8.98416 14.0656 8.93654 13.8259 8.88839 13.7023L8.93654 13.6547C9.08047 13.7301 9.22387 13.7772 9.56631 13.7772H15.1673V10.9703H9.56631C9.22387 10.9703 9.07994 10.9976 8.93654 11.0725L8.88839 11.0244C8.93654 10.9018 8.98416 10.6616 8.98416 10.347V7.94992C8.98416 7.64226 8.93654 7.3956 8.88839 7.27896L8.93654 7.23134C9.08047 7.29983 9.22387 7.34798 9.56631 7.34798H15.8934L15.8928 4.52769Z" fill="white"/>
<path d="M59.881 31.051H56.7857V47.9567H66.9127V45.0808H60.4626C60.1196 45.0808 59.9762 45.1091 59.8323 45.1771L59.7841 45.1289C59.8323 45.0128 59.8804 44.7935 59.8804 44.4789V31.051H59.881ZM54.0125 31.051H44.0085V47.9567H54.1082V45.1289H47.6854C47.343 45.1289 47.1996 45.1771 47.0556 45.252L47.008 45.2039C47.0556 45.0808 47.1038 44.8411 47.1038 44.5265V40.9041C47.1038 40.5884 47.0556 40.3493 47.008 40.2257L47.0556 40.1775C47.1996 40.253 47.3435 40.3006 47.6854 40.3006H53.2864V37.4926H47.6854C47.343 37.4926 47.1996 37.5204 47.0556 37.5953L47.008 37.5472C47.0556 37.4247 47.1038 37.1844 47.1038 36.8693V34.4727C47.1038 34.1651 47.0556 33.9184 47.008 33.8018L47.0556 33.7542C47.1996 33.8221 47.3435 33.8703 47.6854 33.8703H54.0125V31.051ZM41.2353 31.051H31.2313V47.9567H41.3311V45.1289H34.9082C34.5658 45.1289 34.4219 45.1771 34.2785 45.252L34.2303 45.2039C34.2785 45.0808 34.3261 44.8411 34.3261 44.5265V40.9041C34.3261 40.5884 34.2785 40.3493 34.2303 40.2257L34.2785 40.1775C34.4224 40.253 34.5658 40.3006 34.9082 40.3006H40.5092V37.4926H34.9082C34.5658 37.4926 34.4219 37.5204 34.2785 37.5953L34.2303 37.5472C34.2785 37.4247 34.3261 37.1844 34.3261 36.8693V34.4727C34.3261 34.1651 34.2785 33.9184 34.2303 33.8018L34.2785 33.7542C34.4224 33.8221 34.5658 33.8703 34.9082 33.8703H41.2353V31.051ZM29.3276 31.051H16.9062V33.92H20.9871C21.3023 33.92 21.4462 33.8992 21.6174 33.8237L21.665 33.8719C21.6174 33.9949 21.5693 34.2148 21.5693 34.5295V47.9567H24.6646V34.5295C24.6646 34.2148 24.6373 33.9955 24.5891 33.8719L24.6367 33.8237C24.7807 33.8992 24.9246 33.92 25.2665 33.92H29.3271L29.3276 31.051ZM10.7504 30.6877C7.58017 30.6877 5.69731 32.3314 5.69731 34.9607C5.69731 36.796 6.64222 38.1513 8.35387 39.3567L11.1067 41.3354C12.3186 42.2049 12.7981 42.8154 12.7981 43.6094C12.7981 44.6019 11.9762 45.321 10.3876 45.321C8.81295 45.321 7.19707 44.6699 5.88886 43.8758L4.49182 46.7036C6.06007 47.6694 8.11416 48.32 10.2913 48.32C13.8382 48.32 16.0362 46.6009 16.0362 43.4376C16.0362 41.4312 15.1459 40.1026 13.1603 38.7264L10.2367 36.652C9.29878 35.9736 8.93547 35.5429 8.93547 34.8853C8.93547 34.0912 9.49033 33.6595 10.7226 33.6595C11.8799 33.6595 13.0918 34.0431 14.2491 34.6932L15.6253 31.8932C14.202 31.1944 12.5102 30.6877 10.7504 30.6877Z" fill="white"/>
<path d="M105.197 57.0659C99.7872 57.0659 96.1579 60.661 96.1579 65.9056C96.1579 71.2198 99.9033 74.6977 105.121 74.6977C110.797 74.6977 113.502 70.4937 113.502 65.6664V64.8168H105.1V67.5493H108.695C109.497 67.5493 110.024 67.4739 110.27 67.3026L110.318 67.3508C110.195 69.3364 108.647 71.6302 105.121 71.6302C101.69 71.6302 99.4244 69.261 99.4244 65.8575C99.4244 62.5438 101.67 60.1339 105.074 60.1339C106.957 60.1339 108.627 60.8322 109.785 61.7974L111.695 59.2634C110.051 57.9835 107.874 57.0659 105.197 57.0659ZM79.9777 57.1831H79.4914V74.3354H82.5658V66.2898C82.5658 64.8457 82.4631 63.8526 82.2988 63.2977L82.3951 63.2704C82.6343 63.8044 83.0249 64.3866 83.6274 64.9885L93.214 74.5746H93.7201V57.4287H90.6323V65.4679C90.6323 66.9195 90.7286 67.9121 90.8993 68.4669L90.7971 68.4867C90.5574 67.9602 90.1738 67.3781 89.5922 66.7751L79.9777 57.1831ZM76.0884 57.4287H72.9936V74.3354H76.0884V57.4287ZM59.347 60.1345C59.4909 60.2297 59.6616 60.2506 59.9767 60.2506H61.8323C65.1946 60.2506 67.2487 62.3523 67.2487 65.8794C67.2487 69.4054 65.215 71.5082 61.8323 71.5082H59.9767C59.6616 71.5082 59.4909 71.5355 59.347 71.6313L59.2988 71.5831C59.347 71.46 59.3951 71.2203 59.3951 70.9046V60.8536C59.3951 60.5454 59.347 60.2987 59.2988 60.1816L59.347 60.1345ZM61.6889 57.4287H56.2998V74.3354H61.6889C67.0978 74.3354 70.5286 71.0486 70.5286 65.8788C70.5286 60.7091 67.0978 57.4287 61.6889 57.4287ZM47.3638 57.4287H44.2691V74.3354H54.3961V71.4595H47.946C47.6035 71.4595 47.4601 71.4868 47.3162 71.5558L47.2686 71.5077C47.3162 71.3916 47.3644 71.1722 47.3644 70.8576V57.4287H47.3638ZM40.8656 57.4287H37.7708V74.3354H40.8656V57.4287ZM34.5385 57.4287H31.3752V67.6659C31.3752 70.1309 29.9028 71.6034 27.6571 71.6034C25.411 71.6034 23.9321 70.1309 23.9321 67.6659V57.4287H20.7688V67.789C20.7688 72.0893 23.3772 74.6704 27.6571 74.6704C31.9092 74.6704 34.5385 72.0893 34.5385 67.789V57.4287ZM8.93601 71.727L8.88785 71.6789C8.93601 71.5558 8.98363 71.315 8.98363 71.0004V67.5696C8.98363 67.255 8.93601 67.0431 8.88785 66.9195L8.93601 66.8714C9.07994 66.9404 9.25062 66.9677 9.56577 66.9677H12.1742C14.1052 66.9677 15.0983 67.7617 15.0983 69.3096C15.0983 70.8292 14.1806 71.6034 12.3663 71.6034H9.58664C9.22333 71.6034 9.07994 71.6789 8.93601 71.727ZM8.93601 64.3866L8.88785 64.3309C8.93601 64.2148 8.98363 63.9746 8.98363 63.6808V60.7359C8.98363 60.4486 8.93601 60.2019 8.88785 60.0858L8.93601 60.0376C9.07994 60.1339 9.25062 60.1537 9.56577 60.1537H11.8596C13.3797 60.1537 14.2015 60.8531 14.2015 62.1329C14.2015 63.4882 13.3112 64.2828 11.7365 64.2828H9.56577C9.25116 64.2833 9.07994 64.3106 8.93601 64.3866ZM5.88885 74.3354H12.9687C16.2278 74.3354 18.3097 72.5211 18.3097 69.6515C18.3097 67.4749 17.1459 66.0233 15.071 65.5915C14.5643 65.4685 14.2491 65.4203 13.7151 65.4203V65.324C14.2015 65.3042 14.5637 65.2277 15.0228 65.0575C16.4744 64.5781 17.3166 63.3459 17.3166 61.6268C17.3166 59.0654 15.4332 57.4287 12.5097 57.4287H5.88885V74.3354Z" fill="white"/>
</svg>
