<svg width="18" height="19" viewBox="0 0 18 19" fill="none" xmlns="http://www.w3.org/2000/svg">
<path fill-rule="evenodd" clip-rule="evenodd" d="M9 18.6641C10.182 18.6641 11.352 18.4311 12.444 17.9791C13.536 17.5271 14.528 16.8641 15.364 16.0281C16.2 15.1921 16.863 14.2001 17.315 13.1081C17.767 12.0161 18 10.8461 18 9.66406C18 8.48206 17.767 7.31206 17.315 6.22006C16.863 5.12806 16.2 4.13605 15.364 3.30005C14.528 2.46405 13.536 1.80106 12.444 1.34906C11.352 0.89706 10.182 0.664062 9 0.664062C6.613 0.664062 4.324 1.61205 2.636 3.30005C0.948002 4.98805 0 7.27706 0 9.66406C0 12.0511 0.948002 14.3401 2.636 16.0281C4.324 17.7161 6.613 18.6641 9 18.6641ZM8.76801 13.3041L13.768 7.30408L12.232 6.02405L7.93201 11.1831L5.707 8.95706L4.293 10.3711L7.293 13.3711L8.067 14.1451L8.76801 13.3041Z" fill="#ED7817"/>
</svg>
