<svg width="64" height="80" viewBox="0 0 64 80" fill="none" xmlns="http://www.w3.org/2000/svg">
<path fill-rule="evenodd" clip-rule="evenodd" d="M63.531 45.755C63.435 48.237 62.984 50.768 62.087 53.266C60.618 57.358 58.211 60.803 55.262 63.417C55.259 63.42 55.256 63.424 55.253 63.427L55.241 63.436C54.037 64.501 52.744 65.424 51.383 66.194L34.181 78.492C33.491 79.102 32.621 79.317 31.81 79.181C30.998 79.317 30.128 79.102 29.438 78.492L12.236 66.193C10.875 65.423 9.582 64.499 8.378 63.435L8.366 63.426C8.363 63.423 8.36 63.42 8.357 63.416C5.408 60.802 3.002 57.357 1.532 53.265C0.645 50.795 0.195 48.292 0.0909996 45.837C0.0369996 45.612 0 45.38 0 45.138V17.311C0 15.666 1.334 14.332 2.979 14.332H4.216C4.408 14.332 4.594 14.354 4.776 14.389H10.127C10.526 14.418 10.927 14.446 11.334 14.446C18.973 14.446 25.419 9.364 27.494 2.399H27.925C28.615 0.982999 30.054 0 31.735 0C33.416 0 34.855 0.983999 35.545 2.399H36.009C38.085 9.364 44.53 14.446 52.169 14.446C52.576 14.446 52.976 14.418 53.376 14.389H58.818C59 14.354 59.186 14.332 59.378 14.332H60.615C62.26 14.332 63.594 15.666 63.594 17.311V45.14C63.596 45.351 63.573 45.557 63.531 45.755ZM53.314 21.598C43.981 21.598 35.923 16.256 31.947 8.481C31.876 8.484 31.809 8.502 31.736 8.502C31.675 8.502 31.618 8.486 31.557 8.484C27.58 16.258 17.123 21.598 7.791 21.598C7.59 21.598 7.394 21.58 7.196 21.568V44.551H7.211C7.178 46.614 7.509 48.761 8.27 50.878C9.171 53.386 9.818 55.393 12.746 58.012C12.746 58.012 31.323 71.611 31.759 72.133L50.872 58.012C53.54 55.471 54.372 53.385 55.273 50.878C56.034 48.76 56.37 46.614 56.345 44.551H56.399V21.552C55.426 21.573 53.641 21.598 53.314 21.598ZM32.33 54.097C31.542 54.884 30.431 55.132 29.427 54.866C28.693 54.844 27.965 54.56 27.404 53.999L15.249 41.846C14.082 40.679 14.082 38.786 15.249 37.619L16.098 36.77C17.265 35.603 19.158 35.603 20.325 36.77L29.704 46.149L43.227 30.712C44.405 29.535 46.313 29.535 47.49 30.712L48.339 31.56C49.516 32.737 49.516 34.646 48.339 35.823L32.33 54.097Z" fill="#ED7817"/>
</svg>
