<svg width="96" height="77" viewBox="0 0 96 77" fill="none" xmlns="http://www.w3.org/2000/svg">
<path fill-rule="evenodd" clip-rule="evenodd" d="M48.0055 0C39.7267 0 32.9339 6.83943 32.9338 15.2156C32.9338 19.8049 34.9736 23.9402 38.1783 26.7404C30.68 29.9323 24.9102 36.6805 23.1563 45.1221C23.0063 45.8631 23.1525 46.6342 23.5629 47.2663C23.9732 47.8984 24.6143 48.3401 25.3456 48.4946C26.0752 48.6488 26.8354 48.5046 27.4604 48.0935C28.0854 47.6824 28.5245 47.0378 28.682 46.3002C30.6033 37.0526 38.6511 30.4536 48.0055 30.4536C57.3602 30.4536 65.386 37.0521 67.3068 46.3002C67.4642 47.0414 67.9058 47.6889 68.5345 48.1004C69.1633 48.5119 69.9277 48.6537 70.6597 48.4946C71.387 48.3351 72.0227 47.8913 72.4286 47.2598C72.8344 46.6282 72.9776 45.86 72.827 45.1221C71.0734 36.6791 65.3152 29.9318 57.8216 26.7404C61.0207 23.9402 63.0495 19.8049 63.0495 15.2156C63.0495 6.83943 56.2843 0 48.0055 0ZM48.0055 5.71773C53.2374 5.71773 57.4025 9.93467 57.4025 15.2156C57.4025 20.4966 53.2374 24.7359 48.0055 24.7359C42.7735 24.7359 38.5809 20.4966 38.5809 15.2156C38.5809 9.93467 42.7735 5.71773 48.0055 5.71773ZM47.9999 35.4176C47.4732 35.418 46.9571 35.5673 46.5099 35.8485C46.0626 36.1297 45.702 36.5316 45.4687 37.0089L41.8842 44.3515L33.8713 45.5241C33.3498 45.6004 32.8598 45.8227 32.4566 46.1657C32.0534 46.5087 31.7531 46.9588 31.5896 47.4652C31.4262 47.9716 31.406 48.5142 31.5315 49.0315C31.657 49.5489 31.923 50.0205 32.2997 50.3931L38.1011 56.1108L36.7335 64.1793C36.6452 64.7041 36.7037 65.2434 36.9024 65.7364C37.1012 66.2294 37.4322 66.6564 37.8583 66.9693C38.2843 67.2823 38.7884 67.4686 39.3136 67.5074C39.8388 67.5462 40.3643 67.4359 40.8309 67.1889L47.9944 63.3808L55.1635 67.1889C55.63 67.4359 56.1555 67.5462 56.6808 67.5074C57.206 67.4686 57.71 67.2823 58.1361 66.9693C58.5621 66.6564 58.8932 66.2294 59.0919 65.7364C59.2907 65.2434 59.3492 64.7041 59.2609 64.1793L57.8933 56.1108L63.6947 50.4043C64.0729 50.0323 64.3404 49.5607 64.4671 49.0429C64.5938 48.5251 64.5746 47.9818 64.4116 47.4745C64.2486 46.9672 63.9484 46.5162 63.5449 46.1725C63.1414 45.8288 62.6508 45.6061 62.1285 45.5297L54.1157 44.3459L50.5312 37.0145C50.2986 36.5361 49.9384 36.133 49.491 35.8508C49.0437 35.5686 48.5272 35.4185 47.9999 35.4176ZM47.9999 44.7256L49.704 48.2266C49.9074 48.6411 50.2075 48.9995 50.5783 49.2709C50.9491 49.5422 51.3795 49.7185 51.8326 49.7845L55.6488 50.3484L52.8859 53.0677C52.5581 53.3913 52.313 53.7906 52.1717 54.2312C52.0305 54.6719 51.9974 55.1406 52.0753 55.5971L52.726 59.4387L49.3124 57.624C48.9068 57.4084 48.4555 57.2958 47.9972 57.2958C47.5389 57.2958 47.0875 57.4084 46.6819 57.624L43.2683 59.4387L43.9246 55.5971C44.0018 55.1402 43.9678 54.6711 43.8256 54.2305C43.6834 53.7898 43.4373 53.3907 43.1084 53.0677L40.3456 50.3484L44.1617 49.7845C44.6148 49.7185 45.0453 49.5422 45.4161 49.2709C45.7869 48.9995 46.0869 48.6411 46.2904 48.2266L47.9999 44.7256ZM16.5497 44.8987C16.0221 44.8982 15.5048 45.0469 15.0565 45.3282C14.6082 45.6094 14.2467 46.0119 14.013 46.4901L10.4284 53.8271L2.42111 55.0053C1.89957 55.0816 1.40954 55.3038 1.00635 55.6468C0.603158 55.9898 0.302874 56.44 0.139407 56.9464C-0.0240599 57.4528 -0.0441981 57.9953 0.0812668 58.5127C0.206732 59.0301 0.472802 59.5017 0.849429 59.8743L6.65088 65.592L5.27772 73.6549C5.18744 74.1809 5.24477 74.7219 5.4432 75.2166C5.64164 75.7113 5.97323 76.14 6.40039 76.4539C6.82755 76.7678 7.33318 76.9545 7.85994 76.9927C8.3867 77.0309 8.91352 76.9191 9.38065 76.6701L16.5442 72.862L23.7133 76.6645C24.1798 76.9115 24.7053 77.0218 25.2306 76.983C25.7558 76.9442 26.2599 76.7579 26.6859 76.4449C27.1119 76.132 27.443 75.7049 27.6417 75.212C27.8405 74.719 27.899 74.1797 27.8107 73.6549L26.4431 65.592L32.239 59.8798C32.617 59.5082 32.8847 59.0371 33.0116 58.5197C33.1386 58.0023 33.1198 57.4594 32.9575 56.9522C32.7951 56.4451 32.4956 55.994 32.0928 55.6499C31.6901 55.3058 31.2001 55.0825 30.6783 55.0053L22.6655 53.8271L19.081 46.4901C18.8477 46.0127 18.487 45.6108 18.0398 45.3296C17.5925 45.0484 17.0764 44.8992 16.5497 44.8987ZM79.4501 44.8987C78.9234 44.8992 78.4073 45.0485 77.9601 45.3296C77.5128 45.6108 77.1522 46.0128 76.9189 46.4901L73.3344 53.8271L65.3215 55.0053C64.8 55.0816 64.31 55.3038 63.9068 55.6468C63.5036 55.9898 63.2033 56.44 63.0398 56.9464C62.8764 57.4528 62.8562 57.9953 62.9817 58.5127C63.1072 59.0301 63.3732 59.5017 63.7499 59.8743L69.5513 65.592L68.1837 73.6549C68.0941 74.1801 68.1517 74.7202 68.35 75.2141C68.5482 75.7079 68.8792 76.1359 69.3054 76.4496C69.7317 76.7632 70.2363 76.9501 70.7621 76.9891C71.2879 77.0281 71.8141 76.9176 72.2811 76.6701L79.4446 72.862L86.6137 76.6645C87.0802 76.9115 87.6057 77.0219 88.131 76.9831C88.6562 76.9443 89.1603 76.7579 89.5863 76.4449C90.0124 76.132 90.3434 75.705 90.5422 75.212C90.7409 74.719 90.7994 74.1797 90.7111 73.6549L89.349 65.592L95.1449 59.8798C95.5231 59.5078 95.7906 59.0363 95.9173 58.5185C96.044 58.0007 96.0248 57.4574 95.8618 56.9501C95.6988 56.4428 95.3986 55.9918 94.9951 55.6481C94.5916 55.3043 94.101 55.0817 93.5787 55.0053L85.5659 53.8271L81.9814 46.4901C81.7481 46.0127 81.3875 45.6108 80.9402 45.3296C80.4929 45.0484 79.9768 44.8992 79.4501 44.8987ZM16.5497 54.2068L18.2538 57.7022C18.4565 58.1178 18.7563 58.4772 19.1271 58.7496C19.498 59.022 19.9288 59.1991 20.3824 59.2656L24.1986 59.8296L21.4357 62.5488C21.1079 62.8724 20.8628 63.2718 20.7215 63.7124C20.5803 64.1531 20.5472 64.6218 20.6251 65.0783L21.2758 68.9199L17.8622 67.1051C17.4566 66.8896 17.0052 66.7769 16.547 66.7769C16.0887 66.7769 15.6373 66.8896 15.2317 67.1051L11.8181 68.9199L12.4689 65.0727C12.5458 64.6171 12.5122 64.1494 12.371 63.7099C12.2298 63.2703 11.9852 62.8719 11.6582 62.5489L8.89535 59.8296L12.7115 59.2656C13.1652 59.1991 13.596 59.022 13.9668 58.7496C14.3377 58.4772 14.6374 58.1178 14.8402 57.7022L16.5497 54.2068ZM79.4501 54.2068L81.1597 57.7022C81.3619 58.1171 81.6608 58.4761 82.0307 58.7484C82.4005 59.0207 82.8302 59.1982 83.2829 59.2656L87.099 59.8296L84.3417 62.5488C84.0128 62.8719 83.7667 63.271 83.6245 63.7116C83.4823 64.1523 83.4483 64.6213 83.5255 65.0783L84.1762 68.9199L80.7626 67.1051C80.357 66.8896 79.9057 66.7769 79.4474 66.7769C78.9891 66.7769 78.5378 66.8896 78.1322 67.1051L74.7186 68.9199L75.3748 65.0727C75.451 64.6166 75.4166 64.1487 75.2744 63.7091C75.1323 63.2695 74.8866 62.8713 74.5586 62.5488L71.8013 59.8296L75.6119 59.2656C76.0656 59.1991 76.4964 59.022 76.8673 58.7496C77.2381 58.4772 77.5378 58.1178 77.7406 57.7022L79.4501 54.2068Z" fill="#ED7817"/>
</svg>
