<svg width="77" height="77" viewBox="0 0 77 77" fill="none" xmlns="http://www.w3.org/2000/svg">
<path d="M30.8 53.9C37.2167 53.9 42.6708 51.6542 47.1625 47.1625C51.6542 42.6708 53.9 37.2167 53.9 30.8C53.9 24.3833 51.6542 18.9292 47.1625 14.4375C42.6708 9.94583 37.2167 7.7 30.8 7.7C24.3833 7.7 18.9292 9.94583 14.4375 14.4375C9.94583 18.9292 7.7 24.3833 7.7 30.8C7.7 37.2167 9.94583 42.6708 14.4375 47.1625C18.9292 51.6542 24.3833 53.9 30.8 53.9ZM26.95 42.35V15.4H34.65V42.35H26.95ZM13.475 42.35V23.1H21.175V42.35H13.475ZM40.425 42.35V26.95H48.125V42.35H40.425ZM71.61 77L49.7612 55.1512C47.1304 57.2046 44.2108 58.7927 41.0025 59.9156C37.7942 61.0385 34.3933 61.6 30.8 61.6C22.2017 61.6 14.9187 58.6162 8.95125 52.6488C2.98375 46.6812 0 39.3983 0 30.8C0 22.2017 2.98375 14.9187 8.95125 8.95125C14.9187 2.98375 22.2017 0 30.8 0C39.3983 0 46.6812 2.98375 52.6488 8.95125C58.6162 14.9187 61.6 22.2017 61.6 30.8C61.6 34.3933 61.0385 37.7942 59.9156 41.0025C58.7927 44.2108 57.2046 47.1304 55.1512 49.7612L77 71.61L71.61 77Z" fill="#ED7817"/>
</svg>
