<svg width="92" height="75" viewBox="0 0 92 75" fill="none" xmlns="http://www.w3.org/2000/svg">
<path d="M12.5455 75C9.06061 75 6.09848 73.7847 3.65909 71.3542C1.2197 68.9236 0 65.9722 0 62.5C0 59.0278 1.2197 56.0764 3.65909 53.6458C6.09848 51.2153 9.06061 50 12.5455 50C13.1727 50 13.7826 50.0521 14.375 50.1562C14.9674 50.2604 15.5424 50.3819 16.1 50.5208L33.0364 27.2917C31.8515 25.8333 30.928 24.2014 30.2659 22.3958C29.6038 20.5903 29.2727 18.6806 29.2727 16.6667C29.2727 12.0833 30.9106 8.15972 34.1864 4.89583C37.4621 1.63194 41.4 0 46 0C50.6 0 54.5379 1.63194 57.8136 4.89583C61.0894 8.15972 62.7273 12.0833 62.7273 16.6667C62.7273 18.6806 62.3788 20.5903 61.6818 22.3958C60.9848 24.2014 60.0439 25.8333 58.8591 27.2917L75.9 50.5208C76.4576 50.3819 77.0326 50.2604 77.625 50.1562C78.2174 50.0521 78.8273 50 79.4545 50C82.9394 50 85.9015 51.2153 88.3409 53.6458C90.7803 56.0764 92 59.0278 92 62.5C92 65.9722 90.7803 68.9236 88.3409 71.3542C85.9015 73.7847 82.9394 75 79.4545 75C75.9697 75 73.0076 73.7847 70.5682 71.3542C68.1288 68.9236 66.9091 65.9722 66.9091 62.5C66.9091 61.1806 67.1008 59.9132 67.4841 58.6979C67.8674 57.4826 68.4076 56.3889 69.1045 55.4167L52.1682 32.1875C51.8197 32.3264 51.4886 32.4306 51.175 32.5C50.8614 32.5694 50.5303 32.6736 50.1818 32.8125V50.7292C52.6212 51.5625 54.625 53.0556 56.1932 55.2083C57.7614 57.3611 58.5455 59.7917 58.5455 62.5C58.5455 65.9722 57.3258 68.9236 54.8864 71.3542C52.447 73.7847 49.4848 75 46 75C42.5152 75 39.553 73.7847 37.1136 71.3542C34.6742 68.9236 33.4545 65.9722 33.4545 62.5C33.4545 59.7917 34.2386 57.3785 35.8068 55.2604C37.375 53.1424 39.3788 51.6319 41.8182 50.7292V32.8125C41.4697 32.6736 41.1386 32.5694 40.825 32.5C40.5114 32.4306 40.1803 32.3264 39.8318 32.1875L22.8955 55.4167C23.5924 56.3889 24.1326 57.4826 24.5159 58.6979C24.8992 59.9132 25.0909 61.1806 25.0909 62.5C25.0909 65.9722 23.8712 68.9236 21.4318 71.3542C18.9924 73.7847 16.0303 75 12.5455 75ZM12.5455 66.6667C13.7303 66.6667 14.7235 66.2674 15.525 65.4688C16.3265 64.6701 16.7273 63.6806 16.7273 62.5C16.7273 61.3194 16.3265 60.3299 15.525 59.5312C14.7235 58.7326 13.7303 58.3333 12.5455 58.3333C11.3606 58.3333 10.3674 58.7326 9.56591 59.5312C8.76439 60.3299 8.36364 61.3194 8.36364 62.5C8.36364 63.6806 8.76439 64.6701 9.56591 65.4688C10.3674 66.2674 11.3606 66.6667 12.5455 66.6667ZM46 66.6667C47.1848 66.6667 48.178 66.2674 48.9795 65.4688C49.7811 64.6701 50.1818 63.6806 50.1818 62.5C50.1818 61.3194 49.7811 60.3299 48.9795 59.5312C48.178 58.7326 47.1848 58.3333 46 58.3333C44.8152 58.3333 43.822 58.7326 43.0205 59.5312C42.2189 60.3299 41.8182 61.3194 41.8182 62.5C41.8182 63.6806 42.2189 64.6701 43.0205 65.4688C43.822 66.2674 44.8152 66.6667 46 66.6667ZM79.4545 66.6667C80.6394 66.6667 81.6326 66.2674 82.4341 65.4688C83.2356 64.6701 83.6364 63.6806 83.6364 62.5C83.6364 61.3194 83.2356 60.3299 82.4341 59.5312C81.6326 58.7326 80.6394 58.3333 79.4545 58.3333C78.2697 58.3333 77.2765 58.7326 76.475 59.5312C75.6735 60.3299 75.2727 61.3194 75.2727 62.5C75.2727 63.6806 75.6735 64.6701 76.475 65.4688C77.2765 66.2674 78.2697 66.6667 79.4545 66.6667ZM46 25C48.3 25 50.2689 24.184 51.9068 22.5521C53.5447 20.9201 54.3636 18.9583 54.3636 16.6667C54.3636 14.375 53.5447 12.4132 51.9068 10.7812C50.2689 9.14931 48.3 8.33333 46 8.33333C43.7 8.33333 41.7311 9.14931 40.0932 10.7812C38.4553 12.4132 37.6364 14.375 37.6364 16.6667C37.6364 18.9583 38.4553 20.9201 40.0932 22.5521C41.7311 24.184 43.7 25 46 25Z" fill="#ED7817"/>
</svg>
