<svg width="76" height="76" viewBox="0 0 76 76" fill="none" xmlns="http://www.w3.org/2000/svg">
<path d="M29.91 56.3378C29.7362 56.2692 29.5567 56.0938 29.4857 55.9235C29.4246 55.7771 29.4208 55.6281 29.4201 53.1514L29.4193 50.5341H26.6456C23.6135 50.5341 23.7369 50.5428 23.5181 50.3163C23.4639 50.2607 23.3907 50.1525 23.3546 50.0759C23.2922 49.9443 23.2891 49.8327 23.2891 48.039C23.2891 46.411 23.296 46.1215 23.3421 46.0023C23.4105 45.8245 23.5122 45.7067 23.6846 45.6053C23.822 45.5248 23.831 45.5245 26.6208 45.5137L29.4191 45.5028V43.9656V42.4285H26.6361H23.8531L23.672 42.3301C23.554 42.2659 23.4586 42.1787 23.3983 42.0796L23.3056 41.9275L23.2952 39.7295C23.2848 37.2531 23.2744 37.324 23.5377 37.0815C23.6155 37.009 23.7345 36.9329 23.8021 36.9125C23.8785 36.8894 24.9644 36.8751 26.6716 36.8751L29.4183 36.8748L29.4191 28.5538C29.4199 20.5404 29.4218 20.227 29.4837 20.0799C29.5593 19.8989 29.7664 19.7015 29.9351 19.6505C30.1034 19.5995 43.4255 19.6015 44.0905 19.6527C46.1735 19.8126 47.97 20.4433 49.4805 21.5448C50.1387 22.0248 50.4645 22.3162 51.0333 22.9335C52.3486 24.3611 53.1704 25.9361 53.6104 27.8725C53.881 29.0642 53.9539 29.842 53.93 31.3026C53.9161 31.9974 53.8921 32.5468 53.8567 32.8223C53.5198 35.4351 52.5941 37.4666 50.9406 39.2215C50.1601 40.05 49.3916 40.6456 48.4304 41.1673C47.3231 41.7682 46.2995 42.1012 44.8781 42.3229C44.3601 42.4037 44.2534 42.4058 39.6481 42.4264L34.9468 42.4472L34.9364 43.9757L34.926 45.5043L41.0837 45.5141L47.2414 45.5239L47.4121 45.6198C47.5155 45.6778 47.6238 45.7791 47.6869 45.8763L47.7907 46.0369L47.8011 47.9381C47.808 49.2414 47.7997 49.8837 47.7733 49.9806C47.7285 50.1468 47.5655 50.3611 47.4148 50.451C47.3156 50.5101 46.8584 50.5161 41.1258 50.5335L34.9436 50.5524L34.9227 53.1979C34.9019 55.6129 34.9019 55.8537 34.8457 55.962C34.7663 56.1202 34.5699 56.2919 34.4086 56.3447C34.2202 56.4062 30.0593 56.3994 29.9023 56.3371L29.91 56.3378ZM43.3734 36.8358C44.3899 36.7237 45.2866 36.3936 46.009 35.8655C47.6128 34.693 48.3807 32.8715 48.2544 30.5397C48.2079 29.6781 48.0473 29.0082 47.7082 28.2632C47.4535 27.7029 47.1642 27.2815 46.7033 26.7988C45.7911 25.8436 44.6986 25.3398 43.2479 25.2053C42.9446 25.1774 41.5338 25.1675 38.8738 25.1751L34.9475 25.1857L34.9371 31.0302L34.9267 36.8746H38.97C41.5381 36.8746 43.1434 36.8603 43.37 36.8353L43.3734 36.8358Z" fill="#ED7817"/>
<circle cx="38" cy="38" r="34.5" stroke="#ED7817" stroke-width="7"/>
</svg>
