<svg width="81" height="81" viewBox="0 0 81 81" fill="none" xmlns="http://www.w3.org/2000/svg">
<path d="M76.9759 40.4762C76.9759 20.331 60.6449 4 40.4997 4C20.3544 4 4.02344 20.331 4.02344 40.4762C4.02344 60.6215 20.3544 76.9525 40.4997 76.9525" stroke="#ED7817" stroke-width="7"/>
<path d="M61.3434 40.4764C61.3434 28.9648 52.0114 19.6328 40.4998 19.6328C28.9882 19.6328 19.6562 28.9648 19.6562 40.4764C19.6562 51.988 28.9882 61.3199 40.4998 61.3199" stroke="#ED7817" stroke-width="7"/>
<rect x="45.4375" y="70.4961" width="23.5305" height="8.62339" transform="rotate(-89.8093 45.4375 70.4961)" fill="#ED7817"/>
<rect x="45.5195" y="46.1807" width="23.5305" height="8.62339" transform="rotate(-0.220367 45.5195 46.1807)" fill="#ED7817"/>
<line x1="52.7019" y1="54.3044" x2="74.4652" y2="74.2402" stroke="#ED7817" stroke-width="8"/>
</svg>
