<svg width="104" height="77" viewBox="0 0 104 77" fill="none" xmlns="http://www.w3.org/2000/svg">
<path d="M20.8 77L0 56.4667L7.28 49.0233L15.6 57.2367V20.5333C15.6 14.8867 17.6367 10.0528 21.71 6.03167C25.7833 2.01056 30.68 0 36.4 0C42.12 0 47.0167 2.01056 51.09 6.03167C55.1633 10.0528 57.2 14.8867 57.2 20.5333V56.4667C57.2 59.29 58.2183 61.7069 60.255 63.7175C62.2917 65.7281 64.74 66.7333 67.6 66.7333C70.46 66.7333 72.9083 65.7281 74.945 63.7175C76.9817 61.7069 78 59.29 78 56.4667V19.7633L69.68 27.9767L62.4 20.5333L83.2 0L104 20.5333L96.72 27.9767L88.4 19.7633V56.4667C88.4 62.1133 86.3633 66.9472 82.29 70.9683C78.2167 74.9894 73.32 77 67.6 77C61.88 77 56.9833 74.9894 52.91 70.9683C48.8367 66.9472 46.8 62.1133 46.8 56.4667V20.5333C46.8 17.71 45.7817 15.2931 43.745 13.2825C41.7083 11.2719 39.26 10.2667 36.4 10.2667C33.54 10.2667 31.0917 11.2719 29.055 13.2825C27.0183 15.2931 26 17.71 26 20.5333V57.2367L34.32 49.0233L41.6 56.4667L20.8 77Z" fill="#ED7817"/>
</svg>
